<?xml version="1.0" encoding="utf-8"?>
<!-- Generator: Adobe Illustrator 22.0.1, SVG Export Plug-In . SVG Version: 6.00 Build 0)  -->
<svg version="1.1" id="Layer_4" xmlns="http://www.w3.org/2000/svg" xmlns:xlink="http://www.w3.org/1999/xlink" x="0px" y="0px"
	 viewBox="0 0 536.9 128" style="enable-background:new 0 0 536.9 128;" xml:space="preserve">
<style type="text/css">
	.st0{fill:#E6F30B;}
	.st1{fill:#BF0000;}
	.st2{fill:#7CCCC9;}
	.st3{fill:#349428;}
	.st4{fill:#070606;}
</style>
<g id="XMLID_1_">
	<path id="XMLID_83_" d="M255.6,105.7h-1.4c-0.2,0-0.3,0-0.4-0.1c-0.1-0.1-0.2-0.2-0.2-0.3l-0.7-2h-4l-0.7,2c0,0.1-0.1,0.2-0.2,0.3
		c-0.1,0.1-0.2,0.1-0.4,0.1h-1.4l3.8-9.7h1.8L255.6,105.7z M252.4,102.1l-1.2-3.2c-0.1-0.1-0.1-0.3-0.2-0.5
		c-0.1-0.2-0.1-0.4-0.2-0.6c-0.1,0.2-0.1,0.4-0.2,0.6c-0.1,0.2-0.1,0.4-0.2,0.5l-1.2,3.2H252.4z"/>
	<polygon id="XMLID_82_" points="258.4,97.5 258.4,100.4 262,100.4 262,101.8 258.4,101.8 258.4,105.7 256.6,105.7 256.6,96.1 
		262.7,96.1 262.7,97.5 	"/>
	<path id="XMLID_79_" d="M271.7,105.7h-1.6c-0.3,0-0.5-0.1-0.7-0.4l-2-3.1c-0.1-0.1-0.2-0.2-0.3-0.2c-0.1,0-0.2-0.1-0.4-0.1h-0.8
		v3.8h-1.8v-9.7h2.9c0.7,0,1.2,0.1,1.7,0.2c0.5,0.1,0.9,0.3,1.2,0.6c0.3,0.2,0.5,0.5,0.7,0.9c0.1,0.3,0.2,0.7,0.2,1.1
		c0,0.3,0,0.6-0.1,0.9c-0.1,0.3-0.2,0.6-0.4,0.8c-0.2,0.2-0.4,0.4-0.7,0.6c-0.3,0.2-0.6,0.3-0.9,0.4c0.1,0.1,0.2,0.1,0.3,0.2
		c0.1,0.1,0.2,0.2,0.3,0.3L271.7,105.7z M267.1,100.7c0.3,0,0.6,0,0.9-0.1c0.3-0.1,0.5-0.2,0.6-0.4c0.2-0.1,0.3-0.3,0.4-0.5
		c0.1-0.2,0.1-0.4,0.1-0.7c0-0.5-0.2-0.9-0.5-1.1c-0.3-0.3-0.8-0.4-1.5-0.4h-1.2v3.2H267.1z"/>
	<rect id="XMLID_78_" x="272.7" y="96.1" width="1.8" height="9.7"/>
	<path id="XMLID_77_" d="M283.3,103.5c0.1,0,0.2,0,0.3,0.1l0.7,0.8c-0.4,0.5-0.9,0.9-1.4,1.1c-0.6,0.3-1.3,0.4-2.1,0.4
		c-0.7,0-1.4-0.1-1.9-0.4c-0.6-0.2-1.1-0.6-1.5-1c-0.4-0.4-0.7-1-0.9-1.6c-0.2-0.6-0.3-1.3-0.3-2c0-0.7,0.1-1.4,0.3-2
		c0.2-0.6,0.6-1.1,1-1.6c0.4-0.4,0.9-0.8,1.5-1c0.6-0.2,1.2-0.4,1.9-0.4c0.7,0,1.3,0.1,1.9,0.3c0.5,0.2,1,0.5,1.4,0.9l-0.6,0.8
		c0,0.1-0.1,0.1-0.1,0.1c-0.1,0-0.1,0.1-0.2,0.1c-0.1,0-0.1,0-0.2-0.1c-0.1,0-0.1-0.1-0.2-0.1c-0.1-0.1-0.2-0.1-0.3-0.2
		s-0.2-0.1-0.4-0.2c-0.1-0.1-0.3-0.1-0.5-0.1c-0.2,0-0.4-0.1-0.7-0.1c-0.4,0-0.8,0.1-1.2,0.2c-0.4,0.2-0.7,0.4-0.9,0.7
		c-0.3,0.3-0.5,0.6-0.6,1.1c-0.1,0.4-0.2,0.9-0.2,1.4c0,0.5,0.1,1,0.2,1.5c0.2,0.4,0.4,0.8,0.6,1.1c0.3,0.3,0.6,0.5,0.9,0.7
		c0.4,0.2,0.7,0.2,1.2,0.2c0.2,0,0.5,0,0.7,0c0.2,0,0.4-0.1,0.5-0.1c0.2-0.1,0.3-0.1,0.5-0.2c0.1-0.1,0.3-0.2,0.4-0.3
		c0,0,0.1-0.1,0.1-0.1C283.2,103.5,283.3,103.5,283.3,103.5"/>
	<path id="XMLID_74_" d="M293.8,105.7h-1.4c-0.2,0-0.3,0-0.4-0.1c-0.1-0.1-0.2-0.2-0.2-0.3l-0.7-2h-4l-0.7,2c0,0.1-0.1,0.2-0.2,0.3
		c-0.1,0.1-0.2,0.1-0.4,0.1h-1.4l3.8-9.7h1.8L293.8,105.7z M290.7,102.1l-1.2-3.2c-0.1-0.1-0.1-0.3-0.2-0.5
		c-0.1-0.2-0.1-0.4-0.2-0.6c-0.1,0.2-0.1,0.4-0.2,0.6c-0.1,0.2-0.1,0.4-0.2,0.5l-1.2,3.2H290.7z"/>
	<path id="XMLID_73_" d="M301.3,102v3.7h-1.8V102l-3.5-5.9h1.6c0.2,0,0.3,0,0.4,0.1c0.1,0.1,0.2,0.2,0.2,0.3l1.8,3.2
		c0.1,0.2,0.2,0.4,0.3,0.5c0.1,0.2,0.1,0.3,0.2,0.5c0.1-0.2,0.1-0.3,0.2-0.5c0.1-0.2,0.2-0.3,0.3-0.5l1.8-3.2c0-0.1,0.1-0.2,0.2-0.3
		c0.1-0.1,0.2-0.1,0.4-0.1h1.6L301.3,102z"/>
	<path id="XMLID_70_" d="M314.4,100.9c0,0.7-0.1,1.4-0.4,2c-0.2,0.6-0.6,1.1-1,1.6c-0.4,0.4-0.9,0.8-1.5,1c-0.6,0.2-1.3,0.4-2,0.4
		c-0.7,0-1.4-0.1-2-0.4c-0.6-0.2-1.1-0.6-1.5-1c-0.4-0.4-0.8-1-1-1.6c-0.2-0.6-0.4-1.3-0.4-2s0.1-1.4,0.4-2c0.2-0.6,0.6-1.1,1-1.6
		c0.4-0.4,0.9-0.8,1.5-1c0.6-0.2,1.3-0.4,2-0.4c0.5,0,1,0.1,1.4,0.2c0.4,0.1,0.8,0.3,1.2,0.5c0.4,0.2,0.7,0.5,1,0.8
		c0.3,0.3,0.5,0.6,0.7,1c0.2,0.4,0.4,0.8,0.5,1.2C314.4,100,314.4,100.4,314.4,100.9 M312.6,100.9c0-0.5-0.1-1-0.2-1.4
		c-0.1-0.4-0.3-0.8-0.6-1.1c-0.3-0.3-0.6-0.5-1-0.7c-0.4-0.2-0.8-0.2-1.3-0.2c-0.5,0-0.9,0.1-1.3,0.2c-0.4,0.2-0.7,0.4-1,0.7
		c-0.3,0.3-0.5,0.7-0.6,1.1c-0.1,0.4-0.2,0.9-0.2,1.4c0,0.5,0.1,1,0.2,1.4c0.1,0.4,0.3,0.8,0.6,1.1c0.3,0.3,0.6,0.5,1,0.7
		c0.4,0.2,0.8,0.2,1.3,0.2c0.5,0,0.9-0.1,1.3-0.2c0.4-0.2,0.7-0.4,1-0.7c0.3-0.3,0.5-0.6,0.6-1.1
		C312.5,101.9,312.6,101.4,312.6,100.9"/>
	<path id="XMLID_69_" d="M319.9,104.3c0.3,0,0.7-0.1,0.9-0.2c0.3-0.1,0.5-0.3,0.7-0.5c0.2-0.2,0.3-0.5,0.4-0.8
		c0.1-0.3,0.2-0.6,0.2-1v-5.8h1.8v5.8c0,0.6-0.1,1.1-0.3,1.6c-0.2,0.5-0.5,0.9-0.8,1.3c-0.3,0.4-0.8,0.6-1.3,0.8
		c-0.5,0.2-1.1,0.3-1.7,0.3c-0.6,0-1.2-0.1-1.7-0.3c-0.5-0.2-0.9-0.5-1.3-0.8c-0.3-0.4-0.6-0.8-0.8-1.3c-0.2-0.5-0.3-1-0.3-1.6v-5.8
		h1.8v5.8c0,0.4,0.1,0.7,0.2,1c0.1,0.3,0.2,0.6,0.4,0.8c0.2,0.2,0.4,0.4,0.7,0.5C319.2,104.2,319.6,104.3,319.9,104.3"/>
	<polygon id="XMLID_68_" points="332.7,97.5 329.8,97.5 329.8,105.7 328,105.7 328,97.5 325.1,97.5 325.1,96.1 332.7,96.1 	"/>
	<polygon id="XMLID_67_" points="342.1,96.1 342.1,105.7 340.3,105.7 340.3,101.5 335.8,101.5 335.8,105.7 334,105.7 334,96.1 
		335.8,96.1 335.8,100.2 340.3,100.2 340.3,96.1 	"/>
	<polygon id="XMLID_66_" points="249.1,110 249.1,112.7 252.5,112.7 252.5,114.1 249.1,114.1 249.1,116.8 253.4,116.8 253.4,118.3 
		247.3,118.3 247.3,108.6 253.4,108.6 253.4,110 	"/>
	<path id="XMLID_65_" d="M263.1,108.6v9.7h-0.9c-0.1,0-0.3,0-0.4-0.1c-0.1,0-0.2-0.1-0.3-0.2l-5-6.4c0,0.3,0,0.6,0,0.8v5.9H255v-9.7
		h0.9c0.1,0,0.1,0,0.2,0c0.1,0,0.1,0,0.1,0s0.1,0,0.1,0.1c0,0,0.1,0.1,0.1,0.2l5.1,6.5c0-0.2,0-0.3,0-0.5c0-0.2,0-0.3,0-0.4v-5.9
		H263.1z"/>
	<polygon id="XMLID_64_" points="272,110.1 269.1,110.1 269.1,118.3 267.3,118.3 267.3,110.1 264.4,110.1 264.4,108.6 272,108.6 	
		"/>
	<path id="XMLID_27_" d="M280.8,118.3h-1.6c-0.3,0-0.5-0.1-0.7-0.4l-2-3.1c-0.1-0.1-0.2-0.2-0.3-0.2c-0.1,0-0.2-0.1-0.4-0.1h-0.8
		v3.8h-1.8v-9.7h2.9c0.7,0,1.2,0.1,1.7,0.2c0.5,0.1,0.9,0.3,1.2,0.6s0.5,0.5,0.7,0.9c0.1,0.3,0.2,0.7,0.2,1.1c0,0.3,0,0.6-0.1,0.9
		c-0.1,0.3-0.2,0.6-0.4,0.8c-0.2,0.2-0.4,0.4-0.7,0.6c-0.3,0.2-0.6,0.3-0.9,0.4c0.1,0.1,0.2,0.1,0.3,0.2c0.1,0.1,0.2,0.2,0.3,0.3
		L280.8,118.3z M276.2,113.2c0.3,0,0.6,0,0.9-0.1c0.3-0.1,0.5-0.2,0.6-0.4c0.2-0.1,0.3-0.3,0.4-0.5c0.1-0.2,0.1-0.4,0.1-0.7
		c0-0.5-0.2-0.9-0.5-1.1c-0.3-0.3-0.8-0.4-1.5-0.4h-1.2v3.2H276.2z"/>
	<polygon id="XMLID_25_" points="283.7,110 283.7,112.7 287.1,112.7 287.1,114.1 283.7,114.1 283.7,116.8 288,116.8 288,118.3 
		281.9,118.3 281.9,108.6 288,108.6 288,110 	"/>
	<path id="XMLID_6_" d="M292.7,108.6c0.6,0,1.2,0.1,1.7,0.2c0.5,0.2,0.9,0.4,1.2,0.6c0.3,0.3,0.5,0.6,0.7,1c0.1,0.4,0.2,0.8,0.2,1.2
		c0,0.5-0.1,0.9-0.2,1.3c-0.2,0.4-0.4,0.7-0.7,1c-0.3,0.3-0.7,0.5-1.2,0.7c-0.5,0.2-1,0.2-1.6,0.2h-1.3v3.4h-1.8v-9.7H292.7z
		 M292.7,113.4c0.3,0,0.6,0,0.9-0.1c0.2-0.1,0.4-0.2,0.6-0.4s0.3-0.3,0.4-0.6c0.1-0.2,0.1-0.5,0.1-0.7c0-0.3,0-0.5-0.1-0.7
		c-0.1-0.2-0.2-0.4-0.4-0.5c-0.2-0.1-0.4-0.3-0.6-0.3c-0.2-0.1-0.5-0.1-0.9-0.1h-1.3v3.5H292.7z"/>
	<path id="XMLID_3_" d="M305.4,118.3h-1.6c-0.3,0-0.5-0.1-0.7-0.4l-2-3.1c-0.1-0.1-0.2-0.2-0.3-0.2c-0.1,0-0.2-0.1-0.4-0.1h-0.8v3.8
		h-1.8v-9.7h2.9c0.7,0,1.2,0.1,1.7,0.2c0.5,0.1,0.9,0.3,1.2,0.6c0.3,0.2,0.5,0.5,0.7,0.9c0.1,0.3,0.2,0.7,0.2,1.1
		c0,0.3,0,0.6-0.1,0.9c-0.1,0.3-0.2,0.6-0.4,0.8c-0.2,0.2-0.4,0.4-0.7,0.6c-0.3,0.2-0.6,0.3-0.9,0.4c0.1,0.1,0.2,0.1,0.3,0.2
		c0.1,0.1,0.2,0.2,0.3,0.3L305.4,118.3z M300.8,113.2c0.3,0,0.6,0,0.9-0.1c0.3-0.1,0.5-0.2,0.6-0.4c0.2-0.1,0.3-0.3,0.4-0.5
		c0.1-0.2,0.1-0.4,0.1-0.7c0-0.5-0.2-0.9-0.5-1.1c-0.3-0.3-0.8-0.4-1.5-0.4h-1.2v3.2H300.8z"/>
	<polygon id="XMLID_33_" points="308.3,110 308.3,112.7 311.7,112.7 311.7,114.1 308.3,114.1 308.3,116.8 312.6,116.8 312.6,118.3 
		306.5,118.3 306.5,108.6 312.6,108.6 312.6,110 	"/>
	<path id="XMLID_31_" d="M322.3,108.6v9.7h-0.9c-0.1,0-0.3,0-0.4-0.1c-0.1,0-0.2-0.1-0.3-0.2l-5-6.4c0,0.3,0,0.6,0,0.8v5.9h-1.6
		v-9.7h0.9c0.1,0,0.1,0,0.2,0c0.1,0,0.1,0,0.1,0c0,0,0.1,0,0.1,0.1c0,0,0.1,0.1,0.1,0.2l5.1,6.5c0-0.2,0-0.3,0-0.5
		c0-0.2,0-0.3,0-0.4v-5.9H322.3z"/>
	<polygon id="XMLID_30_" points="326.3,110 326.3,112.7 329.7,112.7 329.7,114.1 326.3,114.1 326.3,116.8 330.6,116.8 330.6,118.3 
		324.5,118.3 324.5,108.6 330.6,108.6 330.6,110 	"/>
	<path id="XMLID_28_" d="M336.1,116.8c0.3,0,0.7-0.1,0.9-0.2c0.3-0.1,0.5-0.3,0.7-0.5c0.2-0.2,0.3-0.5,0.4-0.8
		c0.1-0.3,0.2-0.6,0.2-1v-5.8h1.8v5.8c0,0.6-0.1,1.1-0.3,1.6c-0.2,0.5-0.5,0.9-0.8,1.3c-0.3,0.4-0.8,0.6-1.3,0.8
		c-0.5,0.2-1.1,0.3-1.7,0.3c-0.6,0-1.2-0.1-1.7-0.3c-0.5-0.2-0.9-0.5-1.3-0.8c-0.3-0.4-0.6-0.8-0.8-1.3c-0.2-0.5-0.3-1-0.3-1.6v-5.8
		h1.8v5.8c0,0.4,0.1,0.7,0.2,1c0.1,0.3,0.2,0.6,0.4,0.8c0.2,0.2,0.4,0.4,0.7,0.5C335.4,116.7,335.7,116.8,336.1,116.8"/>
	<path id="XMLID_22_" d="M349.6,118.3H348c-0.3,0-0.5-0.1-0.7-0.4l-2-3.1c-0.1-0.1-0.2-0.2-0.3-0.2c-0.1,0-0.2-0.1-0.4-0.1h-0.8v3.8
		h-1.8v-9.7h2.9c0.7,0,1.2,0.1,1.7,0.2c0.5,0.1,0.9,0.3,1.2,0.6c0.3,0.2,0.5,0.5,0.7,0.9c0.1,0.3,0.2,0.7,0.2,1.1
		c0,0.3,0,0.6-0.1,0.9c-0.1,0.3-0.2,0.6-0.4,0.8c-0.2,0.2-0.4,0.4-0.7,0.6c-0.3,0.2-0.6,0.3-0.9,0.4c0.1,0.1,0.2,0.1,0.3,0.2
		c0.1,0.1,0.2,0.2,0.3,0.3L349.6,118.3z M345,113.2c0.3,0,0.6,0,0.9-0.1s0.5-0.2,0.6-0.4c0.2-0.1,0.3-0.3,0.4-0.5
		c0.1-0.2,0.1-0.4,0.1-0.7c0-0.5-0.2-0.9-0.5-1.1c-0.3-0.3-0.8-0.4-1.5-0.4h-1.2v3.2H345z"/>
	<path id="XMLID_21_" d="M355.8,110.3c-0.1,0.1-0.1,0.2-0.2,0.2c-0.1,0-0.1,0.1-0.2,0.1c-0.1,0-0.2,0-0.3-0.1
		c-0.1-0.1-0.2-0.1-0.4-0.2c-0.2-0.1-0.3-0.2-0.5-0.2c-0.2-0.1-0.4-0.1-0.7-0.1c-0.2,0-0.5,0-0.7,0.1c-0.2,0.1-0.3,0.1-0.5,0.3
		c-0.1,0.1-0.2,0.2-0.3,0.4c-0.1,0.1-0.1,0.3-0.1,0.5c0,0.2,0.1,0.4,0.2,0.6c0.1,0.2,0.3,0.3,0.5,0.4c0.2,0.1,0.4,0.2,0.7,0.3
		c0.3,0.1,0.5,0.2,0.8,0.3c0.3,0.1,0.6,0.2,0.8,0.3c0.3,0.1,0.5,0.3,0.7,0.5c0.2,0.2,0.4,0.4,0.5,0.7c0.1,0.3,0.2,0.6,0.2,1
		c0,0.4-0.1,0.8-0.2,1.2c-0.1,0.4-0.4,0.7-0.7,1c-0.3,0.3-0.6,0.5-1.1,0.7c-0.4,0.2-0.9,0.2-1.4,0.2c-0.3,0-0.6,0-0.9-0.1
		c-0.3-0.1-0.6-0.1-0.9-0.3c-0.3-0.1-0.5-0.2-0.8-0.4c-0.2-0.2-0.5-0.3-0.6-0.5l0.5-0.9c0-0.1,0.1-0.1,0.2-0.2
		c0.1,0,0.1-0.1,0.2-0.1c0.1,0,0.2,0,0.4,0.1c0.1,0.1,0.3,0.2,0.5,0.3c0.2,0.1,0.4,0.2,0.6,0.3c0.2,0.1,0.5,0.1,0.9,0.1
		c0.5,0,0.9-0.1,1.2-0.4c0.3-0.2,0.4-0.6,0.4-1c0-0.3-0.1-0.5-0.2-0.6c-0.1-0.2-0.3-0.3-0.5-0.4c-0.2-0.1-0.4-0.2-0.7-0.3
		c-0.3-0.1-0.5-0.2-0.8-0.2c-0.3-0.1-0.5-0.2-0.8-0.3c-0.3-0.1-0.5-0.3-0.7-0.5c-0.2-0.2-0.4-0.5-0.5-0.8c-0.1-0.3-0.2-0.7-0.2-1.1
		c0-0.4,0.1-0.7,0.2-1c0.1-0.3,0.3-0.6,0.6-0.9c0.3-0.3,0.6-0.5,1-0.6c0.4-0.2,0.8-0.2,1.4-0.2c0.6,0,1.1,0.1,1.6,0.3
		c0.5,0.2,0.9,0.4,1.2,0.7L355.8,110.3z"/>
	<path id="XMLID_19_" d="M366.4,110.3c-0.1,0.1-0.1,0.2-0.2,0.2c-0.1,0-0.1,0.1-0.2,0.1c-0.1,0-0.2,0-0.3-0.1
		c-0.1-0.1-0.2-0.1-0.4-0.2c-0.2-0.1-0.3-0.2-0.5-0.2c-0.2-0.1-0.4-0.1-0.7-0.1c-0.2,0-0.5,0-0.7,0.1c-0.2,0.1-0.3,0.1-0.5,0.3
		c-0.1,0.1-0.2,0.2-0.3,0.4c-0.1,0.1-0.1,0.3-0.1,0.5c0,0.2,0.1,0.4,0.2,0.6c0.1,0.2,0.3,0.3,0.5,0.4c0.2,0.1,0.4,0.2,0.7,0.3
		c0.3,0.1,0.5,0.2,0.8,0.3c0.3,0.1,0.6,0.2,0.8,0.3c0.3,0.1,0.5,0.3,0.7,0.5c0.2,0.2,0.4,0.4,0.5,0.7c0.1,0.3,0.2,0.6,0.2,1
		c0,0.4-0.1,0.8-0.2,1.2c-0.1,0.4-0.4,0.7-0.7,1c-0.3,0.3-0.6,0.5-1.1,0.7c-0.4,0.2-0.9,0.2-1.4,0.2c-0.3,0-0.6,0-0.9-0.1
		c-0.3-0.1-0.6-0.1-0.9-0.3c-0.3-0.1-0.5-0.2-0.8-0.4c-0.2-0.2-0.5-0.3-0.6-0.5l0.5-0.9c0-0.1,0.1-0.1,0.2-0.2
		c0.1,0,0.1-0.1,0.2-0.1c0.1,0,0.2,0,0.4,0.1c0.1,0.1,0.3,0.2,0.5,0.3c0.2,0.1,0.4,0.2,0.6,0.3c0.2,0.1,0.5,0.1,0.9,0.1
		c0.5,0,0.9-0.1,1.2-0.4c0.3-0.2,0.4-0.6,0.4-1c0-0.3-0.1-0.5-0.2-0.6c-0.1-0.2-0.3-0.3-0.5-0.4c-0.2-0.1-0.4-0.2-0.7-0.3
		c-0.3-0.1-0.5-0.2-0.8-0.2c-0.3-0.1-0.5-0.2-0.8-0.3c-0.3-0.1-0.5-0.3-0.7-0.5c-0.2-0.2-0.4-0.5-0.5-0.8c-0.1-0.3-0.2-0.7-0.2-1.1
		c0-0.4,0.1-0.7,0.2-1c0.1-0.3,0.3-0.6,0.6-0.9c0.3-0.3,0.6-0.5,1-0.6c0.4-0.2,0.8-0.2,1.4-0.2c0.6,0,1.1,0.1,1.6,0.3
		c0.5,0.2,0.9,0.4,1.2,0.7L366.4,110.3z"/>
	<path id="XMLID_18_" d="M372.5,116.8c0.3,0,0.7-0.1,0.9-0.2c0.3-0.1,0.5-0.3,0.7-0.5c0.2-0.2,0.3-0.5,0.4-0.8
		c0.1-0.3,0.2-0.6,0.2-1v-5.8h1.8v5.8c0,0.6-0.1,1.1-0.3,1.6c-0.2,0.5-0.5,0.9-0.8,1.3c-0.3,0.4-0.8,0.6-1.3,0.8
		c-0.5,0.2-1.1,0.3-1.7,0.3c-0.6,0-1.2-0.1-1.7-0.3c-0.5-0.2-0.9-0.5-1.3-0.8c-0.3-0.4-0.6-0.8-0.8-1.3c-0.2-0.5-0.3-1-0.3-1.6v-5.8
		h1.8v5.8c0,0.4,0.1,0.7,0.2,1c0.1,0.3,0.2,0.6,0.4,0.8c0.2,0.2,0.4,0.4,0.7,0.5C371.9,116.7,372.2,116.8,372.5,116.8"/>
	<path id="XMLID_17_" d="M389,108.6v9.7h-1.6V112c0-0.2,0-0.5,0-0.8l-2.9,5.5c-0.1,0.3-0.4,0.4-0.6,0.4h-0.3c-0.3,0-0.5-0.1-0.6-0.4
		l-3-5.5c0,0.1,0,0.3,0,0.4c0,0.1,0,0.3,0,0.4v6.2h-1.6v-9.7h1.4c0.1,0,0.1,0,0.2,0c0.1,0,0.1,0,0.2,0c0,0,0.1,0,0.1,0.1
		c0,0,0.1,0.1,0.1,0.2l2.9,5.4c0.1,0.1,0.1,0.3,0.2,0.4c0.1,0.2,0.1,0.3,0.2,0.5c0.1-0.2,0.1-0.3,0.2-0.5c0.1-0.2,0.1-0.3,0.2-0.4
		l2.9-5.4c0-0.1,0.1-0.1,0.1-0.2c0,0,0.1-0.1,0.1-0.1c0,0,0.1,0,0.2,0c0.1,0,0.1,0,0.2,0H389z"/>
	<path id="XMLID_16_" d="M401.7,108.6v9.7h-1.6V112c0-0.2,0-0.5,0-0.8l-2.9,5.5c-0.1,0.3-0.4,0.4-0.6,0.4h-0.3
		c-0.3,0-0.5-0.1-0.6-0.4l-3-5.5c0,0.1,0,0.3,0,0.4c0,0.1,0,0.3,0,0.4v6.2h-1.6v-9.7h1.4c0.1,0,0.1,0,0.2,0c0.1,0,0.1,0,0.2,0
		c0,0,0.1,0,0.1,0.1c0,0,0.1,0.1,0.1,0.2l2.9,5.4c0.1,0.1,0.1,0.3,0.2,0.4c0.1,0.2,0.1,0.3,0.2,0.5c0.1-0.2,0.1-0.3,0.2-0.5
		c0.1-0.2,0.1-0.3,0.2-0.4l2.9-5.4c0-0.1,0.1-0.1,0.1-0.2c0,0,0.1-0.1,0.1-0.1c0,0,0.1,0,0.2,0c0.1,0,0.1,0,0.2,0H401.7z"/>
	<rect id="XMLID_15_" x="403.8" y="108.6" width="1.8" height="9.7"/>
	<polygon id="XMLID_14_" points="414.6,110.1 411.6,110.1 411.6,118.3 409.8,118.3 409.8,110.1 406.9,110.1 406.9,108.6 
		414.6,108.6 	"/>
	<rect id="XMLID_13_" x="239.3" y="87.3" class="st0" width="3.8" height="37"/>
	<path id="XMLID_12_" class="st1" d="M180.7,120.3h-0.7v0.9l0.7,0.8v0.9h0.9l1,0.9h0.9l0.5-0.5h0.9l1.1-0.1l0.5-0.8l1,0.5l1.1-0.3
		l1.3,0.6l0.7-0.6l0.9,0.1V122h1.8l4-3.2c0,0,3.5-4.2,3.9-4.4l0.9-0.7c0,0,1.2-3.1,1.1-3.6c-0.1-0.5-0.6,0-0.6,0v-0.9l4.4-2.1
		l0.7-0.5v-0.7h-0.6l0.1-0.5l0.5-0.8v-1.3l-0.5-2.1l-0.5-0.4l0.1-1l1.9-1.7h0.8l1.5-1.9l3.3-1.1c0,0,3.1-3.4,3.1-4.1l-0.4-1.4
		l-0.3-1.3l0.5-0.4c0,0,0.3-0.6-0.3-0.8l-0.1-0.7v-1.4c0,0,1.7-0.9-0.9-2.1l-0.2-1.9l-0.3-0.5l-0.1-0.5l0.5-0.3v-0.6l-0.4-0.5
		l0.1-0.5h0.6l-1.5-1.7v-0.7l0.7-1.3l1.4-2.7l0.4-0.7v-0.4l0.4-0.3h0.5l1.6-1.5l0.9-1.6l2-2.4l1.7-1.8l2.8-1.5l4.3-5.9v-1.1l2.6-5
		V48h0.9v-0.7l-0.7-1.1l0.2-0.5l0.2-0.4h-1.3l-0.7,0.6l-1.3,0.5l-0.9-0.3l-1.1,0.6l-1.1-0.3l-0.9,0.9l-1.5-0.3l-1,0.9h-1.3l-2.1-2.1
		l-0.1-0.5l0.7-0.3c0,0-2.3-3.3-4.9-4.7h-1.1l-0.1-1.1h-0.6l-0.9-1.1c0,0-0.6-2.9-1.4-3.7l-1.6-0.7c0,0-0.8-3.2-0.9-3.8l-0.4-0.9
		v-0.8l-1.5-0.9l-0.9-0.7l-0.3-1.1l0.7-0.5l-0.7-0.6l-1.2-1.1l-2.1-3.7l-2.2-3.5l-0.1-0.5h0.6l1.8,2.6l0.5,0.7l0.5,0.1l0.1-1.2
		l0.6-1.7l-1.4-2.9c0,0-2.8,0.9-3.4,0l-1.5-0.5h-0.9l-1.5,1.5l-3.9-0.9l-2.3-0.1l-0.3-0.9h-2.4l-0.3-0.9h-0.5c0,0-0.4,5.1-0.1,6.7
		c0,0,1.9,13,5.9,20.8c0,0,8.6,18.6,11,21.4l4.1,7.8l1.1,1.5c0,0,2.7,3.3-7,10.6c0,0-15.9,9.8-22.3,12.6l-6.6,3.5l-1.1,0.1l-1.5,0.9
		l1.5,2.5l0.5,1.3l1.7,2.3l0.1,3.2l0.4,0.3l0.4,2v1.1c0,0,0.9,1.9,1.5,2.5l1.3,1.5l0.5,0.6l0.3,0.9l1.9,3.4V120.3z"/>
	<path id="XMLID_11_" class="st2" d="M187.4,11.7c0,0-2.5-1.5-4.3,1.3c0,0-0.5,0.5,0,1.2l0.3,0.7l-1.3,0.7h-0.8c0,0-0.8-1.3-4.3-1.8
		c0,0-0.7-1.3-1.7-2.1l-4.9,5.1c0,0,0.9,5.9,4.5,8.6c0,0,10.2,6.1,15.2,5.9c0,0-3.2-12.3-3-13.5C187.3,17.8,187.2,12,187.4,11.7"/>
	<path id="XMLID_10_" class="st3" d="M181.3,92.5l-7.8,4l-1.1,0.1l-1.5,0.9l-0.9-1.2l-0.3-3.7h0.4l0.2-1.1l0.6-0.7l-0.4-1.4l0.4-0.4
		v-0.5l1.9-1.9l0.3-2.1l-1-2.1l-0.1-0.5l-0.5-0.5l0.9-0.8l-1.1-2l-0.1-0.9l-0.3-0.5l-0.4-0.6v-0.4l-0.3-0.3v-1.1l-0.5-0.5v-0.4
		c0,0-2.7-2.7-3.1-3.1l-1.1-1.1l-0.3-0.6v-0.4l-0.9-1.2c0,0,0.3-0.6,0.8-0.3c0,0,0.5-0.5,0.3-1.5l-0.1-0.7c0,0,1,0.3,0.4-0.8
		c0,0-0.1-0.7,0.5-1.1v-1.6l0.2-0.8c0,0-0.5-1.2-1.5-1.5l-0.7-0.7l-1.1-0.3H162l-0.7,0.5l-1.3,0.2l-1.1-1.2v-0.8l-1.7-1.7h-4.6
		l-0.7,0.5l-0.4,0.4l-0.6,0.3l-0.5-0.4l-2,1.3h-1.3l-0.3,0.4l-0.4,0.3l-3.6-1.1l-1.7,0.4l-3.7,1.3l-2.8-1.3l-1.4-1.7l-0.9-0.3
		l-0.5-0.7l-1.4-1.1l-0.9-0.5l-0.4-1l-0.7-0.7c0,0,0.8-0.7,0-1.7l-1.7-1.9l-1.1-1.1l0.3-1.2h-1.1l-1.1-1.6v-1.5v-0.5
		c0,0,0.7-0.9-0.6-1.7l1.5-1.6l0.2-1.7l0.8-1.2l0.1-0.9l0.5-0.5l-0.1-1.9c0,0-0.9,0.1,0.3-2l-1-1.3l0.6-1.9l0.5-0.3l1.5-2.5l1.9-1.3
		l0.1-1.4c0,0,1.1-0.7,1.3-1.4l1.3-0.7l1.3-2c0,0,2.1,0.3,3-0.8c0,0-3.5,10.8-3.3,13.1c0,0,0.5,7.8,9.4,9.8c0,0,16.3,3.6,22.4,4.6
		c0.2,0,0.3,0.1,0.5,0.1c5.7,0.8,10.3,6.6,11,13.2l0.9,19.6c0,0,1.2,10.5,1.7,11.2L181.3,92.5z"/>
	<path id="XMLID_9_" class="st4" d="M175,11.7c0,0-9.3,11.2-17.4,13.7c0,0-9.2,4.9-16.4-2.3l-4.5-6.4v-0.4l1-0.3l0.5-0.9l0.6-0.6
		l0.6-0.6l-0.1-0.5l-0.1-0.8l0.2-0.7l1-1l0.1-0.9l1.8-1l1.4-0.3c0,0,2.6-1.9,2.5-2.9c0,0,0.9-1.6,1.9,0.4l2.3,0.1l0.7,0.5l1.1-0.1
		l0.7-0.4l0.6-0.7h1.2l1.2-0.9h2.9l1.9-0.4l1.7,0.3l1.6-0.7l0.9,0.4l0.5-0.4l0.9,0.5c0,0,1.5-0.1,1.9-0.8c0,0,1.6-0.7,1.5,0.9
		c0,0,0.2,0.3,0.7-0.4c0,0,1.3,0.4-0.7,1.5l0.7,1.5c0,0,0.2,0.8-1.7,2v0.6l1.3,0.1l1.4,1.3L175,11.7z"/>
	<path id="XMLID_8_" class="st0" d="M232.5,94.4l-3.6,8.6l-0.8,1.8l-0.3,1l-0.8,1.2v0.5l-1.2,0.6h-1.4l-0.4,0.5h-0.8l-0.4-0.4
		l-0.7,0.1v-0.5l-0.5-0.1v-1l-0.7-0.3c0,0,0-1.5,0.6-1.5l-0.2-0.8l-0.4-0.7l-0.4-0.8l3.1-4.2l-0.4-1.7l-0.2-0.6l-0.3-0.9l0.1-0.7
		l0.2-0.8l0.3-0.6l0.4-0.5l0.2-0.6l0.1-0.5h0.5l0.6-0.6h0.5h0.9l1-0.6l0.4-0.4h0.7l0.4-0.6l0.4-0.4c0,0,0.4,0.1,0.5-0.5l0.4-0.5
		l0.1-0.8v-0.5h0.5l0.5,0.3c0,0,1.2-0.6,1.1-1.5l-0.5-0.5l0.1-0.6h0.4l0.4-0.4v-0.4l1.2,2.4l0.3,2.1V89v0.6l0.4,0.3v0.9l-0.6,0.7
		l-0.7-0.9l-0.2,0.8l0.2,0.6l-0.1,0.5l-0.3,0.9l-0.6,0.4L232.5,94.4z"/>
	<path id="XMLID_2_" class="st3" d="M222.3,100.2c0,0,3.9,0.1,6.6,2.9l-0.6,1.3l-0.2,0.5l-0.3,1l-0.8,1.2v0.5l-1.2,0.6h-1.4
		l-0.4,0.5h-0.8l-0.4-0.4l-0.7,0.1v-0.5l-0.5-0.1v-1l-0.7-0.3c0,0,0.2-1.4,0.6-1.5l-0.9-2.3L222.3,100.2z"/>
</g>
</svg>
