<?xml version="1.0" encoding="utf-8"?>
<!-- Generator: Adobe Illustrator 22.0.1, SVG Export Plug-In . SVG Version: 6.00 Build 0)  -->
<svg version="1.1" id="Layer_4" xmlns="http://www.w3.org/2000/svg" xmlns:xlink="http://www.w3.org/1999/xlink" x="0px" y="0px"
	 viewBox="0 0 134.1 32" style="enable-background:new 0 0 134.1 32;" xml:space="preserve">
<style type="text/css">
	.st0{fill:#349428;}
</style>
<g id="XMLID_58_">
	<path id="XMLID_84_" class="st0" d="M58.9,25h-0.3c0,0-0.1,0-0.1,0c0,0,0,0,0-0.1l-0.2-0.4h-0.9l-0.2,0.4c0,0,0,0,0,0.1
		c0,0,0,0-0.1,0h-0.3l0.8-2.1h0.4L58.9,25z M58.2,24.2L58,23.5c0,0,0-0.1,0-0.1c0,0,0-0.1,0-0.1c0,0,0,0.1,0,0.1c0,0,0,0.1,0,0.1
		l-0.3,0.7H58.2z"/>
	<polygon id="XMLID_83_" class="st0" points="59.5,23.2 59.5,23.8 60.3,23.8 60.3,24.1 59.5,24.1 59.5,25 59.1,25 59.1,22.9 
		60.4,22.9 60.4,23.2 	"/>
	<path id="XMLID_80_" class="st0" d="M62.4,25H62c-0.1,0-0.1,0-0.1-0.1l-0.4-0.7c0,0,0,0-0.1-0.1c0,0,0,0-0.1,0h-0.2V25h-0.4v-2.1
		h0.6c0.1,0,0.3,0,0.4,0c0.1,0,0.2,0.1,0.2,0.1c0.1,0.1,0.1,0.1,0.1,0.2c0,0.1,0,0.2,0,0.2c0,0.1,0,0.1,0,0.2c0,0.1-0.1,0.1-0.1,0.2
		c0,0.1-0.1,0.1-0.1,0.1c-0.1,0-0.1,0.1-0.2,0.1c0,0,0,0,0.1,0.1c0,0,0,0,0.1,0.1L62.4,25z M61.4,23.9c0.1,0,0.1,0,0.2,0
		c0.1,0,0.1,0,0.1-0.1c0,0,0.1-0.1,0.1-0.1c0,0,0-0.1,0-0.1c0-0.1,0-0.2-0.1-0.2c-0.1-0.1-0.2-0.1-0.3-0.1h-0.2v0.7H61.4z"/>
	<rect id="XMLID_79_" x="62.6" y="22.9" class="st0" width="0.4" height="2.1"/>
	<path id="XMLID_78_" class="st0" d="M64.9,24.5C64.9,24.5,64.9,24.5,64.9,24.5l0.2,0.2c-0.1,0.1-0.2,0.2-0.3,0.2
		C64.7,25,64.5,25,64.3,25c-0.2,0-0.3,0-0.4-0.1c-0.1-0.1-0.2-0.1-0.3-0.2c-0.1-0.1-0.2-0.2-0.2-0.3c0-0.1-0.1-0.3-0.1-0.4
		c0-0.2,0-0.3,0.1-0.4c0-0.1,0.1-0.2,0.2-0.3c0.1-0.1,0.2-0.2,0.3-0.2c0.1-0.1,0.3-0.1,0.4-0.1c0.2,0,0.3,0,0.4,0.1
		c0.1,0.1,0.2,0.1,0.3,0.2l-0.1,0.2c0,0,0,0,0,0c0,0,0,0,0,0c0,0,0,0,0,0c0,0,0,0-0.1,0c0,0,0,0-0.1,0c0,0-0.1,0-0.1,0
		c0,0-0.1,0-0.1,0c0,0-0.1,0-0.1,0c-0.1,0-0.2,0-0.3,0c-0.1,0-0.1,0.1-0.2,0.1c-0.1,0.1-0.1,0.1-0.1,0.2c0,0.1,0,0.2,0,0.3
		c0,0.1,0,0.2,0,0.3c0,0.1,0.1,0.2,0.1,0.2c0.1,0.1,0.1,0.1,0.2,0.1c0.1,0,0.2,0,0.2,0c0.1,0,0.1,0,0.1,0c0,0,0.1,0,0.1,0
		c0,0,0.1,0,0.1,0C64.8,24.6,64.8,24.6,64.9,24.5C64.8,24.5,64.9,24.5,64.9,24.5C64.9,24.5,64.9,24.5,64.9,24.5"/>
	<path id="XMLID_75_" class="st0" d="M67.2,25h-0.3c0,0-0.1,0-0.1,0c0,0,0,0,0-0.1l-0.2-0.4h-0.9l-0.2,0.4c0,0,0,0,0,0.1
		c0,0,0,0-0.1,0h-0.3l0.8-2.1h0.4L67.2,25z M66.5,24.2l-0.3-0.7c0,0,0-0.1,0-0.1c0,0,0-0.1,0-0.1c0,0,0,0.1,0,0.1c0,0,0,0.1,0,0.1
		l-0.3,0.7H66.5z"/>
	<path id="XMLID_74_" class="st0" d="M68.8,24.2V25h-0.4v-0.8l-0.8-1.3H68c0,0,0.1,0,0.1,0s0,0,0,0.1l0.4,0.7c0,0,0,0.1,0.1,0.1
		c0,0,0,0.1,0,0.1c0,0,0-0.1,0-0.1c0,0,0-0.1,0.1-0.1L69,23c0,0,0,0,0-0.1c0,0,0,0,0.1,0h0.3L68.8,24.2z"/>
	<path id="XMLID_71_" class="st0" d="M71.6,24c0,0.2,0,0.3-0.1,0.4c-0.1,0.1-0.1,0.2-0.2,0.3c-0.1,0.1-0.2,0.2-0.3,0.2
		C70.8,25,70.7,25,70.5,25c-0.2,0-0.3,0-0.4-0.1c-0.1-0.1-0.2-0.1-0.3-0.2c-0.1-0.1-0.2-0.2-0.2-0.3c-0.1-0.1-0.1-0.3-0.1-0.4
		s0-0.3,0.1-0.4c0.1-0.1,0.1-0.2,0.2-0.3c0.1-0.1,0.2-0.2,0.3-0.2c0.1-0.1,0.3-0.1,0.4-0.1c0.1,0,0.2,0,0.3,0S71,23,71.1,23
		c0.1,0,0.1,0.1,0.2,0.2c0.1,0.1,0.1,0.1,0.2,0.2c0,0.1,0.1,0.2,0.1,0.3C71.6,23.8,71.6,23.9,71.6,24 M71.2,24c0-0.1,0-0.2,0-0.3
		c0-0.1-0.1-0.2-0.1-0.2c-0.1-0.1-0.1-0.1-0.2-0.1c-0.1,0-0.2-0.1-0.3-0.1c-0.1,0-0.2,0-0.3,0.1c-0.1,0-0.2,0.1-0.2,0.1
		c-0.1,0.1-0.1,0.1-0.1,0.2c0,0.1,0,0.2,0,0.3s0,0.2,0,0.3c0,0.1,0.1,0.2,0.1,0.2c0.1,0.1,0.1,0.1,0.2,0.1s0.2,0.1,0.3,0.1
		c0.1,0,0.2,0,0.3-0.1c0.1,0,0.2-0.1,0.2-0.1c0.1-0.1,0.1-0.1,0.1-0.2C71.2,24.2,71.2,24.1,71.2,24"/>
	<path id="XMLID_70_" class="st0" d="M72.8,24.7c0.1,0,0.1,0,0.2,0c0.1,0,0.1-0.1,0.1-0.1c0,0,0.1-0.1,0.1-0.2c0-0.1,0-0.1,0-0.2
		v-1.2h0.4v1.2c0,0.1,0,0.2-0.1,0.3c0,0.1-0.1,0.2-0.2,0.3c-0.1,0.1-0.2,0.1-0.3,0.2C73,25,72.9,25,72.8,25c-0.1,0-0.3,0-0.4-0.1
		c-0.1,0-0.2-0.1-0.3-0.2c-0.1-0.1-0.1-0.2-0.2-0.3c0-0.1-0.1-0.2-0.1-0.3v-1.2h0.4v1.2c0,0.1,0,0.2,0,0.2c0,0.1,0.1,0.1,0.1,0.2
		c0,0,0.1,0.1,0.1,0.1C72.6,24.7,72.7,24.7,72.8,24.7"/>
	<polygon id="XMLID_69_" class="st0" points="75.5,23.2 74.9,23.2 74.9,25 74.5,25 74.5,23.2 73.9,23.2 73.9,22.9 75.5,22.9 	"/>
	<polygon id="XMLID_68_" class="st0" points="77.6,22.9 77.6,25 77.2,25 77.2,24.1 76.2,24.1 76.2,25 75.8,25 75.8,22.9 76.2,22.9 
		76.2,23.8 77.2,23.8 77.2,22.9 	"/>
	<polygon id="XMLID_67_" class="st0" points="57.5,25.9 57.5,26.5 58.2,26.5 58.2,26.8 57.5,26.8 57.5,27.4 58.4,27.4 58.4,27.7 
		57.1,27.7 57.1,25.6 58.4,25.6 58.4,25.9 	"/>
	<path id="XMLID_66_" class="st0" d="M60.5,25.6v2.1h-0.2c0,0-0.1,0-0.1,0c0,0,0,0-0.1-0.1l-1.1-1.4c0,0.1,0,0.1,0,0.2v1.3h-0.3
		v-2.1H59c0,0,0,0,0,0c0,0,0,0,0,0c0,0,0,0,0,0c0,0,0,0,0,0l1.1,1.4c0,0,0-0.1,0-0.1c0,0,0-0.1,0-0.1v-1.3H60.5z"/>
	<polygon id="XMLID_65_" class="st0" points="62.5,25.9 61.8,25.9 61.8,27.7 61.4,27.7 61.4,25.9 60.8,25.9 60.8,25.6 62.5,25.6 	
		"/>
	<path id="XMLID_62_" class="st0" d="M64.4,27.7H64c-0.1,0-0.1,0-0.1-0.1L63.4,27c0,0,0,0-0.1-0.1c0,0,0,0-0.1,0h-0.2v0.8h-0.4v-2.1
		h0.6c0.1,0,0.3,0,0.4,0c0.1,0,0.2,0.1,0.2,0.1c0.1,0.1,0.1,0.1,0.1,0.2c0,0.1,0,0.2,0,0.2c0,0.1,0,0.1,0,0.2c0,0.1-0.1,0.1-0.1,0.2
		c0,0.1-0.1,0.1-0.1,0.1c-0.1,0-0.1,0.1-0.2,0.1c0,0,0,0,0.1,0.1c0,0,0,0,0.1,0.1L64.4,27.7z M63.4,26.6c0.1,0,0.1,0,0.2,0
		c0.1,0,0.1,0,0.1-0.1c0,0,0.1-0.1,0.1-0.1c0,0,0-0.1,0-0.1c0-0.1,0-0.2-0.1-0.2c-0.1-0.1-0.2-0.1-0.3-0.1h-0.2v0.7H63.4z"/>
	<polygon id="XMLID_61_" class="st0" points="65,25.9 65,26.5 65.7,26.5 65.7,26.8 65,26.8 65,27.4 65.9,27.4 65.9,27.7 64.6,27.7 
		64.6,25.6 65.9,25.6 65.9,25.9 	"/>
	<path id="XMLID_57_" class="st0" d="M66.9,25.6c0.1,0,0.3,0,0.4,0c0.1,0,0.2,0.1,0.3,0.1c0.1,0.1,0.1,0.1,0.1,0.2
		c0,0.1,0,0.2,0,0.3c0,0.1,0,0.2-0.1,0.3c0,0.1-0.1,0.2-0.2,0.2c-0.1,0.1-0.2,0.1-0.3,0.1c-0.1,0-0.2,0.1-0.4,0.1h-0.3v0.7h-0.4
		v-2.1H66.9z M66.9,26.7c0.1,0,0.1,0,0.2,0c0.1,0,0.1,0,0.1-0.1s0.1-0.1,0.1-0.1c0,0,0-0.1,0-0.2c0-0.1,0-0.1,0-0.2
		c0,0,0-0.1-0.1-0.1c0,0-0.1-0.1-0.1-0.1c-0.1,0-0.1,0-0.2,0h-0.3v0.7H66.9z"/>
	<path id="XMLID_54_" class="st0" d="M69.7,27.7h-0.4c-0.1,0-0.1,0-0.1-0.1L68.7,27c0,0,0,0-0.1-0.1c0,0,0,0-0.1,0h-0.2v0.8H68v-2.1
		h0.6c0.1,0,0.3,0,0.4,0c0.1,0,0.2,0.1,0.2,0.1c0.1,0.1,0.1,0.1,0.1,0.2c0,0.1,0,0.2,0,0.2c0,0.1,0,0.1,0,0.2c0,0.1-0.1,0.1-0.1,0.2
		c0,0.1-0.1,0.1-0.1,0.1c-0.1,0-0.1,0.1-0.2,0.1c0,0,0,0,0.1,0.1c0,0,0,0,0.1,0.1L69.7,27.7z M68.7,26.6c0.1,0,0.1,0,0.2,0
		c0.1,0,0.1,0,0.1-0.1c0,0,0.1-0.1,0.1-0.1c0,0,0-0.1,0-0.1c0-0.1,0-0.2-0.1-0.2c-0.1-0.1-0.2-0.1-0.3-0.1h-0.2v0.7H68.7z"/>
	<polygon id="XMLID_53_" class="st0" points="70.3,25.9 70.3,26.5 71,26.5 71,26.8 70.3,26.8 70.3,27.4 71.2,27.4 71.2,27.7 
		69.9,27.7 69.9,25.6 71.2,25.6 71.2,25.9 	"/>
	<path id="XMLID_52_" class="st0" d="M73.3,25.6v2.1h-0.2c0,0-0.1,0-0.1,0c0,0,0,0-0.1-0.1l-1.1-1.4c0,0.1,0,0.1,0,0.2v1.3h-0.3
		v-2.1h0.2c0,0,0,0,0,0c0,0,0,0,0,0c0,0,0,0,0,0c0,0,0,0,0,0l1.1,1.4c0,0,0-0.1,0-0.1c0,0,0-0.1,0-0.1v-1.3H73.3z"/>
	<polygon id="XMLID_51_" class="st0" points="74.1,25.9 74.1,26.5 74.9,26.5 74.9,26.8 74.1,26.8 74.1,27.4 75.1,27.4 75.1,27.7 
		73.8,27.7 73.8,25.6 75.1,25.6 75.1,25.9 	"/>
	<path id="XMLID_50_" class="st0" d="M76.3,27.4c0.1,0,0.1,0,0.2,0c0.1,0,0.1-0.1,0.1-0.1c0,0,0.1-0.1,0.1-0.2c0-0.1,0-0.1,0-0.2
		v-1.2h0.4v1.2c0,0.1,0,0.2-0.1,0.3c0,0.1-0.1,0.2-0.2,0.3c-0.1,0.1-0.2,0.1-0.3,0.2c-0.1,0-0.2,0.1-0.4,0.1c-0.1,0-0.3,0-0.4-0.1
		c-0.1,0-0.2-0.1-0.3-0.2c-0.1-0.1-0.1-0.2-0.2-0.3c0-0.1-0.1-0.2-0.1-0.3v-1.2h0.4v1.2c0,0.1,0,0.2,0,0.2c0,0.1,0.1,0.1,0.1,0.2
		c0,0,0.1,0.1,0.1,0.1C76.1,27.4,76.2,27.4,76.3,27.4"/>
	<path id="XMLID_47_" class="st0" d="M79.2,27.7h-0.4c-0.1,0-0.1,0-0.1-0.1L78.3,27c0,0,0,0-0.1-0.1c0,0,0,0-0.1,0h-0.2v0.8h-0.4
		v-2.1h0.6c0.1,0,0.3,0,0.4,0c0.1,0,0.2,0.1,0.2,0.1c0.1,0.1,0.1,0.1,0.1,0.2c0,0.1,0,0.2,0,0.2c0,0.1,0,0.1,0,0.2
		c0,0.1-0.1,0.1-0.1,0.2c0,0.1-0.1,0.1-0.1,0.1c-0.1,0-0.1,0.1-0.2,0.1c0,0,0,0,0.1,0.1c0,0,0,0,0.1,0.1L79.2,27.7z M78.2,26.6
		c0.1,0,0.1,0,0.2,0s0.1,0,0.1-0.1c0,0,0.1-0.1,0.1-0.1c0,0,0-0.1,0-0.1c0-0.1,0-0.2-0.1-0.2c-0.1-0.1-0.2-0.1-0.3-0.1h-0.2v0.7
		H78.2z"/>
	<path id="XMLID_46_" class="st0" d="M80.5,26C80.5,26,80.5,26,80.5,26C80.5,26,80.5,26,80.5,26c-0.1,0.1-0.1,0.1-0.2,0
		c0,0-0.1,0-0.1,0c0,0-0.1,0-0.1,0c0,0-0.1,0-0.2,0c-0.1,0-0.1,0-0.1,0c0,0-0.1,0-0.1,0.1c0,0,0,0.1-0.1,0.1c0,0,0,0.1,0,0.1
		c0,0,0,0.1,0,0.1c0,0,0.1,0.1,0.1,0.1c0,0,0.1,0,0.2,0.1c0.1,0,0.1,0,0.2,0.1c0.1,0,0.1,0,0.2,0.1c0.1,0,0.1,0.1,0.2,0.1
		c0,0,0.1,0.1,0.1,0.2c0,0.1,0,0.1,0,0.2c0,0.1,0,0.2,0,0.3c0,0.1-0.1,0.2-0.1,0.2c-0.1,0.1-0.1,0.1-0.2,0.1c-0.1,0-0.2,0.1-0.3,0.1
		c-0.1,0-0.1,0-0.2,0c-0.1,0-0.1,0-0.2-0.1c-0.1,0-0.1-0.1-0.2-0.1c-0.1,0-0.1-0.1-0.1-0.1l0.1-0.2c0,0,0,0,0,0c0,0,0,0,0,0
		c0,0,0,0,0.1,0c0,0,0.1,0,0.1,0.1c0,0,0.1,0,0.1,0.1c0.1,0,0.1,0,0.2,0c0.1,0,0.2,0,0.3-0.1c0.1-0.1,0.1-0.1,0.1-0.2
		c0-0.1,0-0.1,0-0.1c0,0-0.1-0.1-0.1-0.1c0,0-0.1,0-0.2-0.1c-0.1,0-0.1,0-0.2-0.1c-0.1,0-0.1,0-0.2-0.1c-0.1,0-0.1-0.1-0.2-0.1
		c0,0-0.1-0.1-0.1-0.2c0-0.1,0-0.1,0-0.2c0-0.1,0-0.1,0-0.2c0-0.1,0.1-0.1,0.1-0.2c0.1-0.1,0.1-0.1,0.2-0.1c0.1,0,0.2-0.1,0.3-0.1
		c0.1,0,0.2,0,0.3,0.1c0.1,0,0.2,0.1,0.3,0.2L80.5,26z"/>
	<path id="XMLID_45_" class="st0" d="M82.8,26C82.8,26,82.8,26,82.8,26C82.8,26,82.7,26,82.8,26c-0.1,0.1-0.1,0.1-0.2,0
		c0,0-0.1,0-0.1,0c0,0-0.1,0-0.1,0c0,0-0.1,0-0.2,0c-0.1,0-0.1,0-0.1,0c0,0-0.1,0-0.1,0.1c0,0,0,0.1-0.1,0.1c0,0,0,0.1,0,0.1
		c0,0,0,0.1,0,0.1c0,0,0.1,0.1,0.1,0.1c0,0,0.1,0,0.2,0.1c0.1,0,0.1,0,0.2,0.1c0.1,0,0.1,0,0.2,0.1s0.1,0.1,0.2,0.1
		c0,0,0.1,0.1,0.1,0.2c0,0.1,0,0.1,0,0.2c0,0.1,0,0.2,0,0.3c0,0.1-0.1,0.2-0.1,0.2c-0.1,0.1-0.1,0.1-0.2,0.1c-0.1,0-0.2,0.1-0.3,0.1
		c-0.1,0-0.1,0-0.2,0c-0.1,0-0.1,0-0.2-0.1c-0.1,0-0.1-0.1-0.2-0.1c-0.1,0-0.1-0.1-0.1-0.1l0.1-0.2c0,0,0,0,0,0c0,0,0,0,0,0
		c0,0,0,0,0.1,0c0,0,0.1,0,0.1,0.1c0,0,0.1,0,0.1,0.1c0.1,0,0.1,0,0.2,0c0.1,0,0.2,0,0.3-0.1c0.1-0.1,0.1-0.1,0.1-0.2
		c0-0.1,0-0.1,0-0.1c0,0-0.1-0.1-0.1-0.1c0,0-0.1,0-0.2-0.1c-0.1,0-0.1,0-0.2-0.1c-0.1,0-0.1,0-0.2-0.1c-0.1,0-0.1-0.1-0.2-0.1
		c0,0-0.1-0.1-0.1-0.2c0-0.1,0-0.1,0-0.2c0-0.1,0-0.1,0-0.2c0-0.1,0.1-0.1,0.1-0.2c0.1-0.1,0.1-0.1,0.2-0.1c0.1,0,0.2-0.1,0.3-0.1
		c0.1,0,0.2,0,0.3,0.1c0.1,0,0.2,0.1,0.3,0.2L82.8,26z"/>
	<path id="XMLID_44_" class="st0" d="M84.1,27.4c0.1,0,0.1,0,0.2,0c0.1,0,0.1-0.1,0.1-0.1c0,0,0.1-0.1,0.1-0.2c0-0.1,0-0.1,0-0.2
		v-1.2H85v1.2c0,0.1,0,0.2-0.1,0.3c0,0.1-0.1,0.2-0.2,0.3c-0.1,0.1-0.2,0.1-0.3,0.2c-0.1,0-0.2,0.1-0.4,0.1c-0.1,0-0.3,0-0.4-0.1
		c-0.1,0-0.2-0.1-0.3-0.2c-0.1-0.1-0.1-0.2-0.2-0.3c0-0.1-0.1-0.2-0.1-0.3v-1.2h0.4v1.2c0,0.1,0,0.2,0,0.2c0,0.1,0.1,0.1,0.1,0.2
		c0,0,0.1,0.1,0.1,0.1C84,27.4,84,27.4,84.1,27.4"/>
	<path id="XMLID_43_" class="st0" d="M87.7,25.6v2.1h-0.3v-1.3c0-0.1,0-0.1,0-0.2l-0.6,1.2c0,0.1-0.1,0.1-0.1,0.1h-0.1
		c-0.1,0-0.1,0-0.1-0.1l-0.6-1.2c0,0,0,0.1,0,0.1c0,0,0,0.1,0,0.1v1.3h-0.3v-2.1h0.3c0,0,0,0,0,0c0,0,0,0,0,0c0,0,0,0,0,0
		c0,0,0,0,0,0l0.6,1.2c0,0,0,0.1,0,0.1c0,0,0,0.1,0,0.1c0,0,0-0.1,0-0.1c0,0,0-0.1,0-0.1l0.6-1.2c0,0,0,0,0,0s0,0,0,0c0,0,0,0,0,0
		c0,0,0,0,0,0H87.7z"/>
	<path id="XMLID_42_" class="st0" d="M90.4,25.6v2.1h-0.3v-1.3c0-0.1,0-0.1,0-0.2l-0.6,1.2c0,0.1-0.1,0.1-0.1,0.1h-0.1
		c-0.1,0-0.1,0-0.1-0.1l-0.6-1.2c0,0,0,0.1,0,0.1c0,0,0,0.1,0,0.1v1.3h-0.3v-2.1h0.3c0,0,0,0,0,0c0,0,0,0,0,0c0,0,0,0,0,0
		c0,0,0,0,0,0l0.6,1.2c0,0,0,0.1,0,0.1c0,0,0,0.1,0,0.1c0,0,0-0.1,0-0.1c0,0,0-0.1,0-0.1l0.6-1.2c0,0,0,0,0,0c0,0,0,0,0,0
		c0,0,0,0,0,0c0,0,0,0,0,0H90.4z"/>
	<rect id="XMLID_41_" x="90.9" y="25.6" class="st0" width="0.4" height="2.1"/>
	<polygon id="XMLID_40_" class="st0" points="93.2,25.9 92.6,25.9 92.6,27.7 92.2,27.7 92.2,25.9 91.5,25.9 91.5,25.6 93.2,25.6 	
		"/>
	<rect id="XMLID_39_" x="55.4" y="21" class="st0" width="0.8" height="8"/>
	<path id="XMLID_38_" class="st0" d="M42.8,28.1h-0.1v0.2l0.1,0.2v0.2H43l0.2,0.2h0.2l0.1-0.1h0.2l0.2,0l0.1-0.2l0.2,0.1l0.2-0.1
		l0.3,0.1l0.1-0.1l0.2,0v-0.1h0.4l0.9-0.7c0,0,0.8-0.9,0.8-0.9l0.2-0.2c0,0,0.3-0.7,0.2-0.8c0-0.1-0.1,0-0.1,0v-0.2l0.9-0.5l0.1-0.1
		V25h-0.1l0-0.1l0.1-0.2v-0.3L48.5,24l-0.1-0.1l0-0.2l0.4-0.4H49l0.3-0.4l0.7-0.2c0,0,0.7-0.7,0.7-0.9l-0.1-0.3l-0.1-0.3l0.1-0.1
		c0,0,0.1-0.1-0.1-0.2l0-0.1v-0.3c0,0,0.4-0.2-0.2-0.5l0-0.4l-0.1-0.1l0-0.1l0.1-0.1v-0.1l-0.1-0.1l0-0.1h0.1L50,18.7v-0.1l0.2-0.3
		l0.3-0.6l0.1-0.2v-0.1l0.1-0.1h0.1l0.3-0.3l0.2-0.3l0.4-0.5l0.4-0.4l0.6-0.3l0.9-1.3V14l0.6-1.1v-0.4h0.2v-0.2l-0.2-0.2l0-0.1
		l0-0.1h-0.3l-0.2,0.1l-0.3,0.1l-0.2-0.1l-0.2,0.1L53,12.2l-0.2,0.2l-0.3-0.1l-0.2,0.2h-0.3l-0.4-0.4l0-0.1l0.2-0.1c0,0-0.5-0.7-1-1
		h-0.2l0-0.2h-0.1L50,10.5c0,0-0.1-0.6-0.3-0.8l-0.3-0.2c0,0-0.2-0.7-0.2-0.8l-0.1-0.2V8.4l-0.3-0.2L48.6,8l-0.1-0.2l0.1-0.1
		l-0.1-0.1l-0.3-0.2l-0.5-0.8l-0.5-0.8l0-0.1h0.1l0.4,0.6l0.1,0.1l0.1,0l0-0.3l0.1-0.4l-0.3-0.6c0,0-0.6,0.2-0.7,0L46.8,5h-0.2
		l-0.3,0.3l-0.8-0.2l-0.5,0l-0.1-0.2h-0.5l-0.1-0.2h-0.1c0,0-0.1,1.1,0,1.4c0,0,0.4,2.8,1.3,4.5c0,0,1.9,4,2.4,4.6l0.9,1.7l0.2,0.3
		c0,0,0.6,0.7-1.5,2.3c0,0-3.4,2.1-4.8,2.7L41.2,23L41,23l-0.3,0.2l0.3,0.5l0.1,0.3l0.4,0.5l0,0.7l0.1,0.1l0.1,0.4V26
		c0,0,0.2,0.4,0.3,0.5l0.3,0.3l0.1,0.1l0.1,0.2l0.4,0.7V28.1z"/>
	<path id="XMLID_37_" class="st0" d="M44.2,4.7c0,0-0.5-0.3-0.9,0.3c0,0-0.1,0.1,0,0.3l0.1,0.1l-0.3,0.1h-0.2c0,0-0.2-0.3-0.9-0.4
		c0,0-0.1-0.3-0.4-0.4l-1.1,1.1c0,0,0.2,1.3,1,1.8c0,0,2.2,1.3,3.3,1.3c0,0-0.7-2.7-0.6-2.9C44.2,6,44.2,4.8,44.2,4.7"/>
	<path id="XMLID_36_" class="st0" d="M42.9,22.2L41.2,23L41,23l-0.3,0.2L40.4,23l-0.1-0.8h0.1l0-0.2l0.1-0.1l-0.1-0.3l0.1-0.1v-0.1
		l0.4-0.4l0.1-0.5L40.9,20l0-0.1l-0.1-0.1l0.2-0.2l-0.2-0.4l0-0.2l-0.1-0.1l-0.1-0.1v-0.1l-0.1-0.1v-0.2l-0.1-0.1v-0.1
		c0,0-0.6-0.6-0.7-0.7l-0.2-0.2l-0.1-0.1V17l-0.2-0.3c0,0,0.1-0.1,0.2-0.1c0,0,0.1-0.1,0.1-0.3l0-0.1c0,0,0.2,0.1,0.1-0.2
		c0,0,0-0.2,0.1-0.2v-0.3l0-0.2c0,0-0.1-0.3-0.3-0.3l-0.1-0.1L39,14.8h-0.2l-0.1,0.1l-0.3,0l-0.2-0.3v-0.2l-0.4-0.4h-1l-0.1,0.1
		l-0.1,0.1l-0.1,0.1l-0.1-0.1l-0.4,0.3h-0.3l-0.1,0.1l-0.1,0.1l-0.8-0.2l-0.4,0.1l-0.8,0.3l-0.6-0.3l-0.3-0.4l-0.2-0.1L32.2,14
		l-0.3-0.2l-0.2-0.1l-0.1-0.2l-0.2-0.1c0,0,0.2-0.2,0-0.4l-0.4-0.4l-0.2-0.2l0.1-0.3h-0.2l-0.2-0.3v-0.3v-0.1c0,0,0.1-0.2-0.1-0.4
		l0.3-0.3l0-0.4l0.2-0.3l0-0.2L31,9.6l0-0.4c0,0-0.2,0,0.1-0.4l-0.2-0.3L31,8.1L31.1,8l0.3-0.5l0.4-0.3l0-0.3c0,0,0.2-0.2,0.3-0.3
		l0.3-0.2L32.6,6c0,0,0.4,0.1,0.6-0.2c0,0-0.8,2.3-0.7,2.8c0,0,0.1,1.7,2,2.1c0,0,3.5,0.8,4.8,1c0,0,0.1,0,0.1,0
		c1.2,0.2,2.2,1.4,2.4,2.8l0.2,4.2c0,0,0.3,2.3,0.4,2.4L42.9,22.2z"/>
	<path id="XMLID_35_" class="st0" d="M41.5,4.7c0,0-2,2.4-3.8,3c0,0-2,1.1-3.5-0.5l-1-1.4V5.7l0.2-0.1l0.1-0.2l0.1-0.1l0.1-0.1
		l0-0.1l0-0.2l0-0.2l0.2-0.2l0-0.2l0.4-0.2l0.3-0.1c0,0,0.6-0.4,0.5-0.6c0,0,0.2-0.3,0.4,0.1l0.5,0l0.1,0.1l0.2,0l0.1-0.1l0.1-0.1
		h0.3l0.3-0.2H38l0.4-0.1l0.4,0.1l0.3-0.1l0.2,0.1l0.1-0.1l0.2,0.1c0,0,0.3,0,0.4-0.2c0,0,0.3-0.2,0.3,0.2c0,0,0,0.1,0.2-0.1
		c0,0,0.3,0.1-0.1,0.3l0.1,0.3c0,0,0,0.2-0.4,0.4v0.1l0.3,0l0.3,0.3L41.5,4.7z"/>
	<path id="XMLID_34_" class="st0" d="M53.9,22.6l-0.8,1.9L53,24.8L52.9,25l-0.2,0.3v0.1l-0.2,0.1h-0.3l-0.1,0.1h-0.2l-0.1-0.1
		l-0.2,0v-0.1l-0.1,0v-0.2l-0.2-0.1c0,0,0-0.3,0.1-0.3l0-0.2l-0.1-0.2l-0.1-0.2l0.7-0.9L51.9,23l0-0.1l-0.1-0.2l0-0.2l0-0.2l0.1-0.1
		l0.1-0.1l0-0.1l0-0.1h0.1l0.1-0.1h0.1h0.2l0.2-0.1l0.1-0.1h0.2l0.1-0.1l0.1-0.1c0,0,0.1,0,0.1-0.1l0.1-0.1l0-0.2v-0.1h0.1l0.1,0.1
		c0,0,0.2-0.1,0.2-0.3l-0.1-0.1l0-0.1h0.1l0.1-0.1v-0.1l0.3,0.5l0.1,0.4v0.2v0.1l0.1,0.1v0.2l-0.1,0.2l-0.2-0.2l0,0.2l0,0.1l0,0.1
		L54,22.3l-0.1,0.1L53.9,22.6z"/>
	<path id="XMLID_33_" class="st0" d="M51.7,23.8c0,0,0.8,0,1.4,0.6L53,24.7l0,0.1L52.9,25l-0.2,0.3v0.1l-0.2,0.1h-0.3l-0.1,0.1h-0.2
		l-0.1-0.1l-0.2,0v-0.1l-0.1,0v-0.2l-0.2-0.1c0,0,0-0.3,0.1-0.3l-0.2-0.5L51.7,23.8z"/>
</g>
</svg>
