<?xml version="1.0" encoding="utf-8"?>
<!-- Generator: Adobe Illustrator 22.0.1, SVG Export Plug-In . SVG Version: 6.00 Build 0)  -->
<svg version="1.1" id="Layer_4" xmlns="http://www.w3.org/2000/svg" xmlns:xlink="http://www.w3.org/1999/xlink" x="0px" y="0px"
	 viewBox="0 0 1089.3 200" style="enable-background:new 0 0 1089.3 200;" xml:space="preserve">
<style type="text/css">
	.st0{fill:#E6F30B;}
	.st1{fill:#BF0000;}
	.st2{fill:#7CCCC9;}
	.st3{fill:#349428;}
	.st4{fill:#070606;}
</style>
<g id="XMLID_58_">
	<path id="XMLID_64_" d="M605.9,154.5H604c-0.2,0-0.4-0.1-0.5-0.2c-0.1-0.1-0.2-0.2-0.3-0.4l-1-2.7h-5.4l-1,2.7
		c0,0.1-0.1,0.3-0.3,0.4c-0.1,0.1-0.3,0.2-0.5,0.2h-1.9l5.1-13.1h2.5L605.9,154.5z M601.6,149.5l-1.6-4.4c-0.1-0.2-0.2-0.4-0.2-0.7
		c-0.1-0.3-0.2-0.6-0.3-0.9c-0.1,0.3-0.2,0.6-0.2,0.9c-0.1,0.3-0.2,0.5-0.2,0.7l-1.6,4.3H601.6z"/>
	<polygon id="XMLID_63_" points="609.7,143.3 609.7,147.2 614.6,147.2 614.6,149.1 609.7,149.1 609.7,154.5 607.2,154.5 
		607.2,141.4 615.5,141.4 615.5,143.3 	"/>
	<path id="XMLID_60_" d="M627.7,154.5h-2.2c-0.4,0-0.7-0.2-0.9-0.5l-2.8-4.2c-0.1-0.2-0.2-0.3-0.3-0.3c-0.1-0.1-0.3-0.1-0.5-0.1h-1
		v5.1h-2.4v-13.1h4c0.9,0,1.6,0.1,2.3,0.3c0.6,0.2,1.2,0.4,1.6,0.8c0.4,0.3,0.7,0.7,0.9,1.2c0.2,0.5,0.3,1,0.3,1.5
		c0,0.4-0.1,0.9-0.2,1.2c-0.1,0.4-0.3,0.7-0.6,1.1c-0.2,0.3-0.5,0.6-0.9,0.8c-0.4,0.2-0.8,0.4-1.2,0.6c0.2,0.1,0.3,0.2,0.4,0.3
		c0.1,0.1,0.3,0.3,0.4,0.4L627.7,154.5z M621.4,147.6c0.5,0,0.9-0.1,1.2-0.2c0.3-0.1,0.6-0.3,0.8-0.5c0.2-0.2,0.4-0.4,0.5-0.7
		c0.1-0.3,0.2-0.6,0.2-0.9c0-0.7-0.2-1.2-0.7-1.5c-0.4-0.4-1.1-0.5-2-0.5h-1.6v4.3H621.4z"/>
	<rect id="XMLID_59_" x="629.1" y="141.4" width="2.4" height="13.1"/>
	<path id="XMLID_57_" d="M643.5,151.4c0.1,0,0.2,0.1,0.4,0.2l1,1c-0.5,0.7-1.2,1.2-2,1.5c-0.8,0.3-1.7,0.5-2.8,0.5
		c-1,0-1.8-0.2-2.6-0.5c-0.8-0.3-1.4-0.8-2-1.4c-0.5-0.6-1-1.3-1.3-2.1c-0.3-0.8-0.4-1.7-0.4-2.7c0-1,0.2-1.9,0.5-2.7
		c0.3-0.8,0.8-1.5,1.3-2.1c0.6-0.6,1.2-1.1,2-1.4c0.8-0.3,1.7-0.5,2.6-0.5c1,0,1.8,0.2,2.5,0.5c0.7,0.3,1.4,0.7,1.9,1.2l-0.8,1.1
		c0,0.1-0.1,0.1-0.2,0.2c-0.1,0.1-0.2,0.1-0.3,0.1c-0.1,0-0.2,0-0.3-0.1c-0.1-0.1-0.2-0.1-0.3-0.2c-0.1-0.1-0.2-0.2-0.4-0.2
		c-0.2-0.1-0.3-0.2-0.5-0.2c-0.2-0.1-0.4-0.1-0.7-0.2c-0.3-0.1-0.6-0.1-0.9-0.1c-0.6,0-1.1,0.1-1.6,0.3c-0.5,0.2-0.9,0.5-1.3,0.9
		c-0.4,0.4-0.6,0.9-0.8,1.4c-0.2,0.6-0.3,1.2-0.3,1.9c0,0.7,0.1,1.4,0.3,2c0.2,0.6,0.5,1.1,0.8,1.4c0.4,0.4,0.8,0.7,1.3,0.9
		c0.5,0.2,1,0.3,1.6,0.3c0.3,0,0.6,0,0.9-0.1c0.3,0,0.5-0.1,0.7-0.2c0.2-0.1,0.4-0.2,0.6-0.3c0.2-0.1,0.4-0.3,0.6-0.5
		c0.1-0.1,0.1-0.1,0.2-0.1C643.3,151.4,643.4,151.4,643.5,151.4"/>
	<path id="XMLID_54_" d="M657.7,154.5h-1.9c-0.2,0-0.4-0.1-0.5-0.2c-0.1-0.1-0.2-0.2-0.3-0.4l-1-2.7h-5.4l-1,2.7
		c0,0.1-0.1,0.3-0.3,0.4c-0.1,0.1-0.3,0.2-0.5,0.2h-1.9l5.1-13.1h2.5L657.7,154.5z M653.4,149.5l-1.6-4.4c-0.1-0.2-0.2-0.4-0.2-0.7
		c-0.1-0.3-0.2-0.6-0.3-0.9c-0.1,0.3-0.2,0.6-0.2,0.9c-0.1,0.3-0.2,0.5-0.2,0.7l-1.6,4.3H653.4z"/>
	<path id="XMLID_53_" d="M667.7,149.4v5.1h-2.4v-5.1l-4.8-8h2.1c0.2,0,0.4,0.1,0.5,0.2c0.1,0.1,0.2,0.2,0.3,0.4l2.4,4.4
		c0.1,0.3,0.3,0.5,0.4,0.7c0.1,0.2,0.2,0.5,0.3,0.7c0.1-0.2,0.2-0.5,0.3-0.7c0.1-0.2,0.2-0.5,0.4-0.7l2.4-4.4
		c0.1-0.1,0.2-0.3,0.3-0.4c0.1-0.1,0.3-0.2,0.5-0.2h2.2L667.7,149.4z"/>
	<path id="XMLID_50_" d="M685.5,147.9c0,1-0.2,1.8-0.5,2.7c-0.3,0.8-0.8,1.5-1.3,2.1c-0.6,0.6-1.3,1.1-2.1,1.4
		c-0.8,0.3-1.7,0.5-2.7,0.5c-1,0-1.9-0.2-2.7-0.5c-0.8-0.3-1.5-0.8-2.1-1.4c-0.6-0.6-1-1.3-1.4-2.1c-0.3-0.8-0.5-1.7-0.5-2.7
		c0-1,0.2-1.8,0.5-2.7c0.3-0.8,0.8-1.5,1.4-2.1c0.6-0.6,1.3-1.1,2.1-1.4c0.8-0.3,1.7-0.5,2.7-0.5c0.7,0,1.3,0.1,1.9,0.2
		c0.6,0.2,1.1,0.4,1.6,0.7c0.5,0.3,0.9,0.6,1.3,1c0.4,0.4,0.7,0.8,1,1.3c0.3,0.5,0.5,1,0.6,1.6C685.4,146.7,685.5,147.3,685.5,147.9
		 M683,147.9c0-0.7-0.1-1.4-0.3-1.9c-0.2-0.6-0.5-1.1-0.8-1.5c-0.4-0.4-0.8-0.7-1.3-0.9c-0.5-0.2-1.1-0.3-1.7-0.3s-1.2,0.1-1.7,0.3
		c-0.5,0.2-0.9,0.5-1.3,0.9c-0.4,0.4-0.6,0.9-0.8,1.5c-0.2,0.6-0.3,1.2-0.3,1.9s0.1,1.4,0.3,1.9c0.2,0.6,0.5,1.1,0.8,1.4
		c0.4,0.4,0.8,0.7,1.3,0.9c0.5,0.2,1.1,0.3,1.7,0.3s1.2-0.1,1.7-0.3c0.5-0.2,0.9-0.5,1.3-0.9c0.4-0.4,0.6-0.9,0.8-1.4
		C682.9,149.3,683,148.6,683,147.9"/>
	<path id="XMLID_49_" d="M692.9,152.5c0.5,0,0.9-0.1,1.3-0.2c0.4-0.2,0.7-0.4,0.9-0.7c0.3-0.3,0.4-0.6,0.6-1
		c0.1-0.4,0.2-0.9,0.2-1.4v-7.8h2.4v7.8c0,0.8-0.1,1.5-0.4,2.2c-0.2,0.7-0.6,1.2-1.1,1.7c-0.5,0.5-1,0.9-1.7,1.1
		c-0.7,0.3-1.4,0.4-2.3,0.4c-0.8,0-1.6-0.1-2.3-0.4c-0.7-0.3-1.2-0.6-1.7-1.1c-0.5-0.5-0.8-1-1.1-1.7c-0.2-0.7-0.4-1.4-0.4-2.2v-7.8
		h2.4v7.8c0,0.5,0.1,1,0.2,1.4c0.1,0.4,0.3,0.7,0.6,1c0.3,0.3,0.6,0.5,0.9,0.7C692,152.4,692.4,152.5,692.9,152.5"/>
	<polygon id="XMLID_48_" points="710.2,143.4 706.3,143.4 706.3,154.5 703.8,154.5 703.8,143.4 699.9,143.4 699.9,141.4 
		710.2,141.4 	"/>
	<polygon id="XMLID_47_" points="723,141.4 723,154.5 720.5,154.5 720.5,148.7 714.4,148.7 714.4,154.5 711.9,154.5 711.9,141.4 
		714.4,141.4 714.4,147 720.5,147 720.5,141.4 	"/>
	<polygon id="XMLID_46_" points="597.1,160.2 597.1,163.9 601.7,163.9 601.7,165.7 597.1,165.7 597.1,169.4 602.9,169.4 
		602.9,171.4 594.7,171.4 594.7,158.3 602.9,158.3 602.9,160.2 	"/>
	<path id="XMLID_45_" d="M616.1,158.3v13.1h-1.2c-0.2,0-0.4,0-0.5-0.1c-0.1-0.1-0.3-0.2-0.4-0.3l-6.8-8.7c0,0.4,0.1,0.8,0.1,1.1v8
		h-2.1v-13.1h1.3c0.1,0,0.2,0,0.3,0c0.1,0,0.1,0,0.2,0.1s0.1,0.1,0.2,0.1c0.1,0.1,0.1,0.1,0.2,0.2l6.9,8.8c0-0.2,0-0.4,0-0.6
		c0-0.2,0-0.4,0-0.6v-8H616.1z"/>
	<polygon id="XMLID_44_" points="628.2,160.3 624.2,160.3 624.2,171.4 621.8,171.4 621.8,160.3 617.8,160.3 617.8,158.3 
		628.2,158.3 	"/>
	<path id="XMLID_41_" d="M640.1,171.4h-2.2c-0.4,0-0.7-0.2-0.9-0.5l-2.8-4.2c-0.1-0.2-0.2-0.3-0.3-0.3c-0.1-0.1-0.3-0.1-0.5-0.1h-1
		v5.1h-2.4v-13.1h4c0.9,0,1.6,0.1,2.3,0.3c0.6,0.2,1.2,0.4,1.6,0.8c0.4,0.3,0.7,0.7,0.9,1.2c0.2,0.5,0.3,1,0.3,1.5
		c0,0.4-0.1,0.9-0.2,1.2c-0.1,0.4-0.3,0.7-0.6,1.1c-0.2,0.3-0.5,0.6-0.9,0.8c-0.4,0.2-0.8,0.4-1.2,0.6c0.2,0.1,0.3,0.2,0.4,0.3
		c0.1,0.1,0.3,0.3,0.4,0.4L640.1,171.4z M633.8,164.5c0.5,0,0.9-0.1,1.2-0.2c0.3-0.1,0.6-0.3,0.8-0.5c0.2-0.2,0.4-0.4,0.5-0.7
		c0.1-0.3,0.2-0.6,0.2-0.9c0-0.7-0.2-1.2-0.7-1.5c-0.4-0.4-1.1-0.5-2-0.5h-1.6v4.3H633.8z"/>
	<polygon id="XMLID_40_" points="643.9,160.2 643.9,163.9 648.5,163.9 648.5,165.7 643.9,165.7 643.9,169.4 649.8,169.4 
		649.8,171.4 641.5,171.4 641.5,158.3 649.8,158.3 649.8,160.2 	"/>
	<path id="XMLID_37_" d="M656.2,158.3c0.9,0,1.6,0.1,2.3,0.3c0.6,0.2,1.2,0.5,1.6,0.9c0.4,0.4,0.7,0.8,0.9,1.3
		c0.2,0.5,0.3,1.1,0.3,1.7c0,0.6-0.1,1.2-0.3,1.7c-0.2,0.5-0.5,1-0.9,1.4c-0.4,0.4-1,0.7-1.6,0.9c-0.6,0.2-1.4,0.3-2.2,0.3h-1.8v4.6
		h-2.4v-13.1H656.2z M656.2,164.9c0.4,0,0.8-0.1,1.2-0.2c0.3-0.1,0.6-0.3,0.8-0.5s0.4-0.5,0.5-0.8c0.1-0.3,0.2-0.6,0.2-1
		c0-0.3-0.1-0.7-0.2-0.9c-0.1-0.3-0.3-0.5-0.5-0.7c-0.2-0.2-0.5-0.4-0.8-0.5c-0.3-0.1-0.7-0.2-1.2-0.2h-1.8v4.7H656.2z"/>
	<path id="XMLID_34_" d="M673.3,171.4h-2.2c-0.4,0-0.7-0.2-0.9-0.5l-2.8-4.2c-0.1-0.2-0.2-0.3-0.3-0.3c-0.1-0.1-0.3-0.1-0.5-0.1h-1
		v5.1h-2.4v-13.1h4c0.9,0,1.6,0.1,2.3,0.3c0.6,0.2,1.2,0.4,1.6,0.8c0.4,0.3,0.7,0.7,0.9,1.2c0.2,0.5,0.3,1,0.3,1.5
		c0,0.4-0.1,0.9-0.2,1.2c-0.1,0.4-0.3,0.7-0.6,1.1c-0.2,0.3-0.5,0.6-0.9,0.8c-0.4,0.2-0.8,0.4-1.2,0.6c0.2,0.1,0.3,0.2,0.4,0.3
		c0.1,0.1,0.3,0.3,0.4,0.4L673.3,171.4z M667.1,164.5c0.5,0,0.9-0.1,1.2-0.2c0.3-0.1,0.6-0.3,0.8-0.5c0.2-0.2,0.4-0.4,0.5-0.7
		c0.1-0.3,0.2-0.6,0.2-0.9c0-0.7-0.2-1.2-0.7-1.5c-0.4-0.4-1.1-0.5-2-0.5h-1.6v4.3H667.1z"/>
	<polygon id="XMLID_33_" points="677.2,160.2 677.2,163.9 681.8,163.9 681.8,165.7 677.2,165.7 677.2,169.4 683,169.4 683,171.4 
		674.7,171.4 674.7,158.3 683,158.3 683,160.2 	"/>
	<path id="XMLID_31_" d="M696.2,158.3v13.1h-1.2c-0.2,0-0.4,0-0.5-0.1c-0.1-0.1-0.3-0.2-0.4-0.3l-6.8-8.7c0,0.4,0.1,0.8,0.1,1.1v8
		h-2.1v-13.1h1.3c0.1,0,0.2,0,0.3,0c0.1,0,0.1,0,0.2,0.1c0.1,0,0.1,0.1,0.2,0.1c0.1,0.1,0.1,0.1,0.2,0.2l6.9,8.8c0-0.2,0-0.4,0-0.6
		c0-0.2,0-0.4,0-0.6v-8H696.2z"/>
	<polygon id="XMLID_30_" points="701.5,160.2 701.5,163.9 706.1,163.9 706.1,165.7 701.5,165.7 701.5,169.4 707.3,169.4 
		707.3,171.4 699.1,171.4 699.1,158.3 707.3,158.3 707.3,160.2 	"/>
	<path id="XMLID_28_" d="M714.8,169.4c0.5,0,0.9-0.1,1.3-0.2c0.4-0.2,0.7-0.4,0.9-0.7c0.3-0.3,0.4-0.6,0.6-1
		c0.1-0.4,0.2-0.9,0.2-1.4v-7.8h2.4v7.8c0,0.8-0.1,1.5-0.4,2.2c-0.2,0.7-0.6,1.2-1.1,1.7c-0.5,0.5-1,0.9-1.7,1.1
		c-0.7,0.3-1.4,0.4-2.3,0.4c-0.8,0-1.6-0.1-2.3-0.4c-0.7-0.3-1.2-0.6-1.7-1.1c-0.5-0.5-0.8-1-1.1-1.7c-0.2-0.7-0.4-1.4-0.4-2.2v-7.8
		h2.4v7.8c0,0.5,0.1,1,0.2,1.4c0.1,0.4,0.3,0.7,0.6,1c0.3,0.3,0.6,0.5,0.9,0.7C713.9,169.3,714.3,169.4,714.8,169.4"/>
	<path id="XMLID_22_" d="M733.1,171.4h-2.2c-0.4,0-0.7-0.2-0.9-0.5l-2.8-4.2c-0.1-0.2-0.2-0.3-0.3-0.3c-0.1-0.1-0.3-0.1-0.5-0.1h-1
		v5.1h-2.4v-13.1h4c0.9,0,1.6,0.1,2.3,0.3c0.6,0.2,1.2,0.4,1.6,0.8c0.4,0.3,0.7,0.7,0.9,1.2c0.2,0.5,0.3,1,0.3,1.5
		c0,0.4-0.1,0.9-0.2,1.2c-0.1,0.4-0.3,0.7-0.6,1.1c-0.2,0.3-0.5,0.6-0.9,0.8c-0.4,0.2-0.8,0.4-1.2,0.6c0.2,0.1,0.3,0.2,0.4,0.3
		c0.1,0.1,0.3,0.3,0.4,0.4L733.1,171.4z M726.9,164.5c0.5,0,0.9-0.1,1.2-0.2c0.3-0.1,0.6-0.3,0.8-0.5c0.2-0.2,0.4-0.4,0.5-0.7
		c0.1-0.3,0.2-0.6,0.2-0.9c0-0.7-0.2-1.2-0.7-1.5c-0.4-0.4-1.1-0.5-2-0.5h-1.6v4.3H726.9z"/>
	<path id="XMLID_21_" d="M741.5,160.7c-0.1,0.1-0.1,0.2-0.2,0.3c-0.1,0.1-0.2,0.1-0.3,0.1c-0.1,0-0.3,0-0.4-0.1
		c-0.1-0.1-0.3-0.2-0.5-0.3s-0.4-0.2-0.7-0.3c-0.3-0.1-0.6-0.1-1-0.1c-0.3,0-0.6,0-0.9,0.1c-0.3,0.1-0.5,0.2-0.6,0.3
		c-0.2,0.1-0.3,0.3-0.4,0.5c-0.1,0.2-0.1,0.4-0.1,0.7c0,0.3,0.1,0.6,0.3,0.8c0.2,0.2,0.4,0.4,0.7,0.5c0.3,0.1,0.6,0.3,1,0.4
		c0.4,0.1,0.7,0.2,1.1,0.4c0.4,0.1,0.8,0.3,1.1,0.5c0.4,0.2,0.7,0.4,1,0.7c0.3,0.3,0.5,0.6,0.7,1c0.2,0.4,0.3,0.8,0.3,1.4
		c0,0.6-0.1,1.1-0.3,1.7c-0.2,0.5-0.5,1-0.9,1.3c-0.4,0.4-0.9,0.7-1.4,0.9c-0.6,0.2-1.2,0.3-1.9,0.3c-0.4,0-0.8,0-1.2-0.1
		c-0.4-0.1-0.8-0.2-1.2-0.3c-0.4-0.2-0.7-0.3-1-0.5c-0.3-0.2-0.6-0.4-0.9-0.7l0.7-1.2c0.1-0.1,0.1-0.2,0.2-0.2
		c0.1-0.1,0.2-0.1,0.3-0.1c0.2,0,0.3,0.1,0.5,0.2c0.2,0.1,0.4,0.3,0.6,0.4c0.2,0.2,0.5,0.3,0.8,0.4c0.3,0.1,0.7,0.2,1.2,0.2
		c0.7,0,1.2-0.2,1.6-0.5c0.4-0.3,0.6-0.8,0.6-1.4c0-0.3-0.1-0.6-0.3-0.8c-0.2-0.2-0.4-0.4-0.7-0.5c-0.3-0.1-0.6-0.3-1-0.4
		c-0.4-0.1-0.7-0.2-1.1-0.3c-0.4-0.1-0.7-0.3-1.1-0.4c-0.4-0.2-0.7-0.4-1-0.7c-0.3-0.3-0.5-0.6-0.7-1c-0.2-0.4-0.3-0.9-0.3-1.5
		c0-0.5,0.1-0.9,0.3-1.4c0.2-0.5,0.5-0.9,0.8-1.2s0.8-0.6,1.3-0.8c0.5-0.2,1.1-0.3,1.8-0.3c0.8,0,1.5,0.1,2.1,0.4
		c0.7,0.2,1.2,0.6,1.7,1L741.5,160.7z"/>
	<path id="XMLID_19_" d="M755.8,160.7c-0.1,0.1-0.1,0.2-0.2,0.3c-0.1,0.1-0.2,0.1-0.3,0.1c-0.1,0-0.3,0-0.4-0.1
		c-0.1-0.1-0.3-0.2-0.5-0.3c-0.2-0.1-0.4-0.2-0.7-0.3c-0.3-0.1-0.6-0.1-1-0.1c-0.3,0-0.6,0-0.9,0.1c-0.3,0.1-0.5,0.2-0.6,0.3
		c-0.2,0.1-0.3,0.3-0.4,0.5c-0.1,0.2-0.1,0.4-0.1,0.7c0,0.3,0.1,0.6,0.3,0.8c0.2,0.2,0.4,0.4,0.7,0.5c0.3,0.1,0.6,0.3,1,0.4
		c0.4,0.1,0.7,0.2,1.1,0.4c0.4,0.1,0.8,0.3,1.1,0.5c0.4,0.2,0.7,0.4,1,0.7c0.3,0.3,0.5,0.6,0.7,1c0.2,0.4,0.3,0.8,0.3,1.4
		c0,0.6-0.1,1.1-0.3,1.7c-0.2,0.5-0.5,1-0.9,1.3c-0.4,0.4-0.9,0.7-1.4,0.9c-0.6,0.2-1.2,0.3-1.9,0.3c-0.4,0-0.8,0-1.2-0.1
		c-0.4-0.1-0.8-0.2-1.2-0.3c-0.4-0.2-0.7-0.3-1-0.5c-0.3-0.2-0.6-0.4-0.9-0.7l0.7-1.2c0.1-0.1,0.1-0.2,0.2-0.2
		c0.1-0.1,0.2-0.1,0.3-0.1c0.2,0,0.3,0.1,0.5,0.2c0.2,0.1,0.4,0.3,0.6,0.4c0.2,0.2,0.5,0.3,0.8,0.4c0.3,0.1,0.7,0.2,1.2,0.2
		c0.7,0,1.2-0.2,1.6-0.5c0.4-0.3,0.6-0.8,0.6-1.4c0-0.3-0.1-0.6-0.3-0.8c-0.2-0.2-0.4-0.4-0.7-0.5c-0.3-0.1-0.6-0.3-1-0.4
		c-0.4-0.1-0.7-0.2-1.1-0.3c-0.4-0.1-0.7-0.3-1.1-0.4c-0.4-0.2-0.7-0.4-1-0.7c-0.3-0.3-0.5-0.6-0.7-1c-0.2-0.4-0.3-0.9-0.3-1.5
		c0-0.5,0.1-0.9,0.3-1.4c0.2-0.5,0.5-0.9,0.8-1.2s0.8-0.6,1.3-0.8c0.5-0.2,1.1-0.3,1.8-0.3c0.8,0,1.5,0.1,2.1,0.4
		c0.7,0.2,1.2,0.6,1.7,1L755.8,160.7z"/>
	<path id="XMLID_18_" d="M764.1,169.4c0.5,0,0.9-0.1,1.3-0.2c0.4-0.2,0.7-0.4,0.9-0.7c0.3-0.3,0.4-0.6,0.6-1
		c0.1-0.4,0.2-0.9,0.2-1.4v-7.8h2.4v7.8c0,0.8-0.1,1.5-0.4,2.2c-0.2,0.7-0.6,1.2-1.1,1.7c-0.5,0.5-1,0.9-1.7,1.1
		c-0.7,0.3-1.4,0.4-2.3,0.4c-0.8,0-1.6-0.1-2.3-0.4c-0.7-0.3-1.2-0.6-1.7-1.1c-0.5-0.5-0.8-1-1.1-1.7c-0.2-0.7-0.4-1.4-0.4-2.2v-7.8
		h2.4v7.8c0,0.5,0.1,1,0.2,1.4c0.1,0.4,0.3,0.7,0.6,1c0.3,0.3,0.6,0.5,0.9,0.7C763.2,169.3,763.6,169.4,764.1,169.4"/>
	<path id="XMLID_17_" d="M786.4,158.3v13.1h-2.1v-8.4c0-0.3,0-0.7,0.1-1.1l-4,7.4c-0.2,0.4-0.5,0.5-0.9,0.5h-0.3
		c-0.4,0-0.7-0.2-0.9-0.5l-4-7.5c0,0.2,0,0.4,0,0.6c0,0.2,0,0.4,0,0.5v8.4h-2.1v-13.1h1.8c0.1,0,0.2,0,0.3,0c0.1,0,0.1,0,0.2,0
		c0.1,0,0.1,0.1,0.2,0.1c0.1,0.1,0.1,0.1,0.1,0.2l3.9,7.3c0.1,0.2,0.2,0.4,0.3,0.6c0.1,0.2,0.2,0.4,0.3,0.6c0.1-0.2,0.2-0.4,0.3-0.6
		c0.1-0.2,0.2-0.4,0.3-0.6l3.9-7.2c0-0.1,0.1-0.2,0.2-0.2s0.1-0.1,0.2-0.1c0.1,0,0.1,0,0.2,0c0.1,0,0.2,0,0.3,0H786.4z"/>
	<path id="XMLID_16_" d="M803.5,158.3v13.1h-2.1v-8.4c0-0.3,0-0.7,0.1-1.1l-4,7.4c-0.2,0.4-0.5,0.5-0.9,0.5h-0.3
		c-0.4,0-0.7-0.2-0.9-0.5l-4-7.5c0,0.2,0,0.4,0,0.6c0,0.2,0,0.4,0,0.5v8.4h-2.1v-13.1h1.8c0.1,0,0.2,0,0.3,0c0.1,0,0.1,0,0.2,0
		c0.1,0,0.1,0.1,0.2,0.1c0.1,0.1,0.1,0.1,0.1,0.2l3.9,7.3c0.1,0.2,0.2,0.4,0.3,0.6c0.1,0.2,0.2,0.4,0.3,0.6c0.1-0.2,0.2-0.4,0.3-0.6
		c0.1-0.2,0.2-0.4,0.3-0.6l3.9-7.2c0-0.1,0.1-0.2,0.2-0.2s0.1-0.1,0.2-0.1c0.1,0,0.1,0,0.2,0c0.1,0,0.2,0,0.3,0H803.5z"/>
	<rect id="XMLID_15_" x="806.4" y="158.3" width="2.4" height="13.1"/>
	<polygon id="XMLID_14_" points="820.9,160.3 817,160.3 817,171.4 814.6,171.4 814.6,160.3 810.6,160.3 810.6,158.3 820.9,158.3 	
		"/>
	<rect id="XMLID_13_" x="583.9" y="129.5" class="st0" width="5.1" height="50"/>
	<path id="XMLID_12_" class="st1" d="M504.7,174.1h-0.9v1.2l0.9,1.1v1.2h1.3l1.3,1.2h1.3l0.7-0.7h1.3l1.5-0.1l0.7-1.1l1.3,0.6
		l1.5-0.4l1.7,0.8l0.9-0.8l1.2,0.2v-0.8h2.4l5.4-4.3c0,0,4.8-5.7,5.3-5.9l1.2-1c0,0,1.6-4.1,1.4-4.9c-0.2-0.7-0.8,0-0.8,0v-1.2
		l5.9-2.9l0.9-0.7v-1h-0.8l0.1-0.6l0.7-1.1v-1.7l-0.7-2.9l-0.6-0.5l0.2-1.3l2.5-2.2h1.1l2-2.6l4.4-1.5c0,0,4.2-4.6,4.2-5.6l-0.5-1.9
		l-0.4-1.7l0.6-0.5c0,0,0.5-0.8-0.4-1.1l-0.2-0.9v-1.9c0,0,2.3-1.2-1.3-2.9l-0.3-2.5l-0.4-0.7l-0.1-0.6l0.6-0.4v-0.8l-0.5-0.6
		l0.2-0.6h0.8l-2.1-2.3v-0.9l1-1.8l1.9-3.7l0.5-1v-0.5l0.5-0.4h0.7l2.2-2l1.3-2.2l2.7-3.2l2.2-2.4l3.8-2l5.8-8v-1.5l3.5-6.7v-2.2
		h1.3v-1l-1-1.4l0.3-0.6l0.3-0.5h-1.8l-1,0.8l-1.7,0.7l-1.3-0.4l-1.4,0.8l-1.4-0.4l-1.3,1.3l-2.1-0.4l-1.3,1.3h-1.8l-2.8-2.8
		l-0.1-0.6l1-0.4c0,0-3.1-4.4-6.6-6.3h-1.4l-0.1-1.5h-0.8l-1.2-1.4c0,0-0.8-4-1.9-4.9l-2.2-1c0,0-1.1-4.3-1.3-5.1l-0.5-1.2v-1.1
		l-2-1.3l-1.3-0.9l-0.4-1.4l0.9-0.7l-0.9-0.8l-1.6-1.4l-2.9-5l-3-4.8l-0.2-0.7h0.8l2.4,3.5l0.6,0.9l0.6,0.1l0.1-1.6l0.8-2.2l-1.9-4
		c0,0-3.8,1.3-4.6,0l-2-0.6h-1.2l-2.1,2.1l-5.3-1.3l-3.1-0.2l-0.4-1.3h-3.2l-0.5-1.3h-0.6c0,0-0.5,6.9-0.1,9.1c0,0,2.6,17.5,8,28.1
		c0,0,11.7,25.1,14.8,29L542,104l1.4,2.1c0,0,3.6,4.5-9.4,14.3c0,0-21.5,13.2-30.2,17l-8.9,4.7l-1.5,0.1l-2.1,1.2l2.1,3.4l0.6,1.8
		l2.2,3.1l0.1,4.3l0.5,0.4l0.5,2.8v1.5c0,0,1.2,2.6,2,3.3l1.7,2.1l0.7,0.8l0.4,1.2l2.5,4.6V174.1z"/>
	<path id="XMLID_11_" class="st2" d="M513.8,27.3c0,0-3.4-2-5.8,1.8c0,0-0.6,0.7,0,1.6l0.4,0.9l-1.7,0.9h-1.1c0,0-1.1-1.7-5.8-2.4
		c0,0-0.9-1.8-2.3-2.8l-6.7,6.9c0,0,1.2,7.9,6.1,11.6c0,0,13.8,8.2,20.6,7.9c0,0-4.4-16.7-4-18.3C513.5,35.4,513.5,27.7,513.8,27.3"
		/>
	<path id="XMLID_10_" class="st3" d="M505.5,136.6l-10.6,5.4l-1.5,0.1l-2.1,1.2l-1.3-1.7l-0.4-5h0.5l0.3-1.5l0.8-0.9l-0.5-1.9
		l0.5-0.5v-0.7l2.5-2.6l0.4-2.9l-1.3-2.8l-0.1-0.7l-0.6-0.7l1.3-1.1l-1.5-2.7l-0.1-1.2l-0.4-0.7l-0.5-0.8v-0.5l-0.4-0.4v-1.5
		l-0.6-0.6v-0.5c0,0-3.6-3.6-4.1-4.2l-1.5-1.4l-0.4-0.8v-0.5l-1.2-1.6c0,0,0.4-0.8,1.1-0.4c0,0,0.7-0.7,0.4-2l-0.1-0.9
		c0,0,1.3,0.4,0.5-1.1c0,0-0.2-1,0.7-1.5v-2.2l0.3-1.1c0,0-0.6-1.6-2-2l-0.9-0.9l-1.5-0.4h-1.5l-0.9,0.6l-1.8,0.3l-1.4-1.6v-1.1
		l-2.3-2.3h-6.2l-0.9,0.6l-0.5,0.5l-0.8,0.4l-0.7-0.5L461,89h-1.7l-0.4,0.5l-0.5,0.4l-4.9-1.5l-2.3,0.5l-4.9,1.7l-3.8-1.8l-1.9-2.2
		l-1.3-0.4l-0.6-0.9l-1.9-1.5l-1.3-0.6l-0.5-1.3l-1-0.9c0,0,1.1-1,0-2.3l-2.3-2.5l-1.4-1.4l0.4-1.6H429l-1.4-2.2v-2.1v-0.7
		c0,0,0.9-1.2-0.8-2.3l2-2.2l0.3-2.2l1.1-1.6l0.2-1.2l0.6-0.6l-0.2-2.5c0,0-1.3,0.1,0.4-2.7l-1.3-1.8l0.8-2.6l0.6-0.4l2-3.3l2.5-1.8
		l0.2-1.9c0,0,1.4-1,1.7-1.9l1.7-1l1.8-2.7c0,0,2.8,0.4,4-1.1c0,0-4.8,14.6-4.4,17.7c0,0,0.7,10.5,12.8,13.2c0,0,22.1,4.9,30.4,6.2
		c0.2,0,0.5,0.1,0.7,0.1c7.6,1.1,13.9,9,14.8,17.8l1.2,26.5c0,0,1.6,14.2,2.2,15.2L505.5,136.6z"/>
	<path id="XMLID_9_" class="st4" d="M496.9,27.3c0,0-12.6,15.2-23.6,18.5c0,0-12.4,6.7-22.2-3.1l-6-8.6v-0.5l1.3-0.3l0.7-1.2
		l0.8-0.8l0.8-0.8l-0.1-0.6l-0.1-1.1l0.3-1l1.3-1.3l0.1-1.2l2.4-1.3l1.9-0.4c0,0,3.5-2.6,3.3-4c0,0,1.3-2.2,2.5,0.5l3.1,0.2l0.9,0.7
		l1.5-0.2l0.9-0.5l0.8-0.9h1.6L471,18h3.9l2.6-0.5l2.3,0.4L482,17l1.3,0.5L484,17l1.3,0.7c0,0,2-0.1,2.5-1.1c0,0,2.2-1,2.1,1.2
		c0,0,0.3,0.4,1-0.5c0,0,1.8,0.5-0.9,2.1l0.9,2c0,0,0.3,1.1-2.2,2.7v0.8l1.7,0.2l1.9,1.7L496.9,27.3z"/>
	<path id="XMLID_8_" class="st0" d="M574.6,139.1l-4.9,11.7l-1.1,2.4l-0.4,1.4l-1.1,1.7v0.7l-1.6,0.8h-1.9l-0.5,0.7h-1.1l-0.6-0.6
		l-1,0.1v-0.7L560,157v-1.4l-1-0.4c0,0,0-2,0.8-2l-0.3-1.1l-0.5-1l-0.5-1.1l4.2-5.6l-0.5-2.3l-0.3-0.8l-0.4-1.3l0.2-1l0.3-1.1
		l0.4-0.8l0.5-0.7l0.3-0.9l0.1-0.7h0.7l0.8-0.8h0.7h1.2l1.4-0.8l0.5-0.6h1l0.5-0.9l0.6-0.5c0,0,0.5,0.1,0.7-0.7l0.6-0.7l0.1-1.1
		v-0.7h0.7l0.7,0.4c0,0,1.6-0.8,1.5-2l-0.7-0.7l0.2-0.8h0.5l0.6-0.5v-0.5l1.7,3.2l0.4,2.8v1.5v0.8l0.5,0.4v1.2l-0.9,1l-1-1.3
		l-0.3,1.1l0.3,0.8l-0.2,0.7l-0.4,1.2l-0.8,0.6L574.6,139.1z"/>
	<path id="XMLID_7_" class="st3" d="M560.9,146.9c0,0,5.2,0.1,8.9,3.9l-0.8,1.8l-0.3,0.7l-0.4,1.4l-1.1,1.7v0.7l-1.6,0.8h-1.9
		l-0.5,0.7h-1.1l-0.6-0.6l-1,0.1v-0.7L560,157v-1.4l-1-0.4c0,0,0.3-1.9,0.8-2l-1.3-3.1L560.9,146.9z"/>
</g>
</svg>
